<svg xmlns="http://www.w3.org/2000/svg" xmlns:xlink="http://www.w3.org/1999/xlink" version="1.1" data-diagram-type="DESCRIPTION" style="width:1428px;height:985px;background:#FFFFFF;" width="1428.125px" height="985.938px" viewBox="0 0 1428 985" zoomAndPan="magnify" preserveAspectRatio="none" contentStyleType="text/css"><?plantuml 1.2026.7?><defs/><g font-family="sans-serif" lengthAdjust="spacing"><g class="title" data-source-line="3"><text x="424.899" y="45.975" fill="#0B4763" font-size="28.125" textLength="567.389" font-weight="700" font-family="'Segoe UI'">Module M3 - Interventions et maintenance</text></g><!--cluster M3 - Maintenance--><g class="cluster" data-qualified-name="M3 - Maintenance" id="ent0004" data-source-line="13"><rect x="178.125" y="355.268" width="1228.125" height="575" fill="#F7F9FB" style="stroke:#C3CDD8;stroke-width:1.563;" rx="6.25" ry="6.25"/><text x="705.13" y="380.312" fill="#0B4763" font-size="20.313" textLength="174.114" font-weight="700" font-family="'Segoe UI'">M3 - Maintenance</text></g><!--entity U20--><g class="entity" data-qualified-name="M3 - Maintenance.U20" id="ent0005" data-source-line="14"><ellipse cx="779.366" cy="727.191" rx="191.866" ry="55.517" fill="#FFF" style="stroke:#106D99;stroke-width:1.563;"/><text x="754.258" y="698.369" fill="#161E26" font-size="20.313" textLength="50.216" font-family="'Segoe UI'">EF-20</text><text x="675.19" y="725.387" fill="#161E26" font-size="20.313" textLength="55.582" font-family="'Segoe UI'">Ouvrir</text><text x="730.772" y="725.387" fill="#161E26" font-size="20.313" font-family="'Segoe UI'"> </text><text x="736.336" y="725.387" fill="#161E26" font-size="20.313" textLength="33.613" font-family="'Segoe UI'">une</text><text x="769.949" y="725.387" fill="#161E26" font-size="20.313" font-family="'Segoe UI'"> </text><text x="775.513" y="725.387" fill="#161E26" font-size="20.313" textLength="108.029" font-family="'Segoe UI'">intervention</text><text x="630.132" y="752.404" fill="#161E26" font-size="20.313" textLength="119.901" font-family="'Segoe UI'">(signalement,</text><text x="750.033" y="752.404" fill="#161E26" font-size="20.313" font-family="'Segoe UI'"> </text><text x="755.597" y="752.404" fill="#161E26" font-size="20.313" textLength="50.444" font-family="'Segoe UI'">alerte</text><text x="806.041" y="752.404" fill="#161E26" font-size="20.313" font-family="'Segoe UI'"> </text><text x="811.605" y="752.404" fill="#161E26" font-size="20.313" textLength="23.397" font-family="'Segoe UI'">ou</text><text x="835.002" y="752.404" fill="#161E26" font-size="20.313" font-family="'Segoe UI'"> </text><text x="840.566" y="752.404" fill="#161E26" font-size="20.313" textLength="88.034" font-family="'Segoe UI'">manuelle)</text></g><!--entity U21--><g class="entity" data-qualified-name="M3 - Maintenance.U21" id="ent0006" data-source-line="15"><ellipse cx="779.923" cy="594.14" rx="117.423" ry="51.372" fill="#FFF" style="stroke:#106D99;stroke-width:1.563;"/><text x="754.815" y="570.176" fill="#161E26" font-size="20.313" textLength="50.216" font-family="'Segoe UI'">EF-21</text><text x="682.06" y="597.194" fill="#161E26" font-size="20.313" textLength="70.39" font-family="'Segoe UI'">Affecter</text><text x="752.45" y="597.194" fill="#161E26" font-size="20.313" font-family="'Segoe UI'"> </text><text x="758.014" y="597.194" fill="#161E26" font-size="20.313" textLength="22.99" font-family="'Segoe UI'">un</text><text x="781.004" y="597.194" fill="#161E26" font-size="20.313" font-family="'Segoe UI'"> </text><text x="786.568" y="597.194" fill="#161E26" font-size="20.313" textLength="91.218" font-family="'Segoe UI'">technicien</text><text x="706.821" y="624.211" fill="#161E26" font-size="20.313" textLength="17.506" font-family="'Segoe UI'">et</text><text x="724.327" y="624.211" fill="#161E26" font-size="20.313" font-family="'Segoe UI'"> </text><text x="729.891" y="624.211" fill="#161E26" font-size="20.313" textLength="33.613" font-family="'Segoe UI'">une</text><text x="763.504" y="624.211" fill="#161E26" font-size="20.313" font-family="'Segoe UI'"> </text><text x="769.068" y="624.211" fill="#161E26" font-size="20.313" textLength="83.958" font-family="'Segoe UI'">échéance</text></g><!--entity U22--><g class="entity" data-qualified-name="M3 - Maintenance.U22" id="ent0007" data-source-line="16"><ellipse cx="1264.19" cy="594.085" rx="117.315" ry="52.099" fill="#FFF" style="stroke:#106D99;stroke-width:1.563;"/><text x="1239.082" y="569.416" fill="#161E26" font-size="20.313" textLength="50.216" font-family="'Segoe UI'">EF-22</text><text x="1167.919" y="596.433" fill="#161E26" font-size="20.313" textLength="42.857" font-family="'Segoe UI'">Faire</text><text x="1210.776" y="596.433" fill="#161E26" font-size="20.313" font-family="'Segoe UI'"> </text><text x="1216.34" y="596.433" fill="#161E26" font-size="20.313" textLength="66.353" font-family="'Segoe UI'">évoluer</text><text x="1282.693" y="596.433" fill="#161E26" font-size="20.313" font-family="'Segoe UI'"> </text><text x="1288.257" y="596.433" fill="#161E26" font-size="20.313" textLength="15.542" font-family="'Segoe UI'">le</text><text x="1303.799" y="596.433" fill="#161E26" font-size="20.313" font-family="'Segoe UI'"> </text><text x="1309.363" y="596.433" fill="#161E26" font-size="20.313" textLength="51.099" font-family="'Segoe UI'">statut</text><text x="1187.785" y="623.45" fill="#161E26" font-size="20.313" textLength="81.875" font-family="'Segoe UI'">(machine</text><text x="1269.66" y="623.45" fill="#161E26" font-size="20.313" font-family="'Segoe UI'"> </text><text x="1275.224" y="623.45" fill="#161E26" font-size="20.313" font-family="'Segoe UI'">à</text><text x="1285.559" y="623.45" fill="#161E26" font-size="20.313" font-family="'Segoe UI'"> </text><text x="1291.123" y="623.45" fill="#161E26" font-size="20.313" textLength="49.472" font-family="'Segoe UI'">états)</text></g><!--entity U23--><g class="entity" data-qualified-name="M3 - Maintenance.U23" id="ent0008" data-source-line="17"><ellipse cx="779.93" cy="464.867" rx="148.68" ry="52.568" fill="#FFF" style="stroke:#106D99;stroke-width:1.563;"/><text x="754.822" y="439.269" fill="#161E26" font-size="20.313" textLength="50.216" font-family="'Segoe UI'">EF-23</text><text x="658.055" y="466.286" fill="#161E26" font-size="20.313" textLength="90.652" font-family="'Segoe UI'">Consigner</text><text x="748.707" y="466.286" fill="#161E26" font-size="20.313" font-family="'Segoe UI'"> </text><text x="754.271" y="466.286" fill="#161E26" font-size="20.313" textLength="15.542" font-family="'Segoe UI'">le</text><text x="769.813" y="466.286" fill="#161E26" font-size="20.313" font-family="'Segoe UI'"> </text><text x="775.377" y="466.286" fill="#161E26" font-size="20.313" textLength="68.227" font-family="'Segoe UI'">compte</text><text x="843.605" y="466.286" fill="#161E26" font-size="20.313" font-family="'Segoe UI'"> </text><text x="849.169" y="466.286" fill="#161E26" font-size="20.313" textLength="52.636" font-family="'Segoe UI'">rendu</text><text x="678.258" y="493.303" fill="#161E26" font-size="20.313" textLength="88.877" font-family="'Segoe UI'">technique</text><text x="767.135" y="493.303" fill="#161E26" font-size="20.313" font-family="'Segoe UI'"> </text><text x="772.699" y="493.303" fill="#161E26" font-size="20.313" textLength="17.506" font-family="'Segoe UI'">et</text><text x="790.205" y="493.303" fill="#161E26" font-size="20.313" font-family="'Segoe UI'"> </text><text x="795.769" y="493.303" fill="#161E26" font-size="20.313" textLength="24.161" font-family="'Segoe UI'">les</text><text x="819.93" y="493.303" fill="#161E26" font-size="20.313" font-family="'Segoe UI'"> </text><text x="825.494" y="493.303" fill="#161E26" font-size="20.313" textLength="56.107" font-family="'Segoe UI'">pièces</text></g><!--entity U24--><g class="entity" data-qualified-name="M3 - Maintenance.U24" id="ent0009" data-source-line="18"><ellipse cx="779.579" cy="857.103" rx="138.954" ry="48.71" fill="#FFF" style="stroke:#106D99;stroke-width:1.563;"/><text x="754.471" y="835.405" fill="#161E26" font-size="20.313" textLength="50.216" font-family="'Segoe UI'">EF-24</text><text x="655.978" y="862.423" fill="#161E26" font-size="20.313" textLength="89.492" font-family="'Segoe UI'">Confirmer</text><text x="745.47" y="862.423" fill="#161E26" font-size="20.313" font-family="'Segoe UI'"> </text><text x="751.034" y="862.423" fill="#161E26" font-size="20.313" textLength="15.542" font-family="'Segoe UI'">le</text><text x="766.576" y="862.423" fill="#161E26" font-size="20.313" font-family="'Segoe UI'"> </text><text x="772.14" y="862.423" fill="#161E26" font-size="20.313" textLength="131.039" font-family="'Segoe UI'">rétablissement</text><text x="710.786" y="889.44" fill="#161E26" font-size="20.313" textLength="70.112" font-family="'Segoe UI'">(second</text><text x="780.898" y="889.44" fill="#161E26" font-size="20.313" font-family="'Segoe UI'"> </text><text x="786.462" y="889.44" fill="#161E26" font-size="20.313" textLength="61.909" font-family="'Segoe UI'">acteur)</text></g><!--entity U25--><g class="entity" data-qualified-name="M3 - Maintenance.U25" id="ent0010" data-source-line="19"><ellipse cx="1263.974" cy="848.724" rx="105.38" ry="55.956" fill="#FFF" style="stroke:#106D99;stroke-width:1.563;"/><text x="1238.866" y="820.623" fill="#161E26" font-size="20.313" textLength="50.216" font-family="'Segoe UI'">EF-25</text><text x="1187.202" y="847.64" fill="#161E26" font-size="20.313" textLength="71.312" font-family="'Segoe UI'">Calculer</text><text x="1258.514" y="847.64" fill="#161E26" font-size="20.313" font-family="'Segoe UI'"> </text><text x="1264.078" y="847.64" fill="#161E26" font-size="20.313" textLength="15.542" font-family="'Segoe UI'">le</text><text x="1279.62" y="847.64" fill="#161E26" font-size="20.313" font-family="'Segoe UI'"> </text><text x="1285.184" y="847.64" fill="#161E26" font-size="20.313" textLength="55.562" font-family="'Segoe UI'">temps</text><text x="1184.38" y="874.658" fill="#161E26" font-size="20.313" textLength="22.584" font-family="'Segoe UI'">de</text><text x="1206.964" y="874.658" fill="#161E26" font-size="20.313" font-family="'Segoe UI'"> </text><text x="1212.528" y="874.658" fill="#161E26" font-size="20.313" textLength="131.039" font-family="'Segoe UI'">rétablissement</text></g><!--entity U26--><g class="entity" data-qualified-name="M3 - Maintenance.U26" id="ent0011" data-source-line="20"><ellipse cx="309.64" cy="463.112" rx="106.515" ry="51.595" fill="#FFF" style="stroke:#106D99;stroke-width:1.563;"/><text x="284.532" y="439.202" fill="#161E26" font-size="20.313" textLength="50.216" font-family="'Segoe UI'">EF-26</text><text x="221.665" y="466.219" fill="#161E26" font-size="20.313" textLength="85.574" font-family="'Segoe UI'">Consulter</text><text x="307.239" y="466.219" fill="#161E26" font-size="20.313" font-family="'Segoe UI'"> </text><text x="312.804" y="466.219" fill="#161E26" font-size="20.313" textLength="15.542" font-family="'Segoe UI'">le</text><text x="328.345" y="466.219" fill="#161E26" font-size="20.313" font-family="'Segoe UI'"> </text><text x="333.91" y="466.219" fill="#161E26" font-size="20.313" textLength="63.705" font-family="'Segoe UI'">dossier</text><text x="243.317" y="493.237" fill="#161E26" font-size="20.313" textLength="22.584" font-family="'Segoe UI'">de</text><text x="265.9" y="493.237" fill="#161E26" font-size="20.313" font-family="'Segoe UI'"> </text><text x="271.464" y="493.237" fill="#161E26" font-size="20.313" textLength="104.498" font-family="'Segoe UI'">préparation</text></g><!--entity U27--><g class="entity" data-qualified-name="M3 - Maintenance.U27" id="ent0012" data-source-line="21"><ellipse cx="309.751" cy="595.663" rx="97.251" ry="56.02" fill="#FFF" style="stroke:#106D99;stroke-width:1.563;"/><text x="284.643" y="567.803" fill="#161E26" font-size="20.313" textLength="50.216" font-family="'Segoe UI'">EF-27</text><text x="236.674" y="594.82" fill="#161E26" font-size="20.313" textLength="54.62" font-family="'Segoe UI'">Suivre</text><text x="291.294" y="594.82" fill="#161E26" font-size="20.313" font-family="'Segoe UI'"> </text><text x="296.858" y="594.82" fill="#161E26" font-size="20.313" textLength="15.542" font-family="'Segoe UI'">le</text><text x="312.4" y="594.82" fill="#161E26" font-size="20.313" font-family="'Segoe UI'"> </text><text x="317.964" y="594.82" fill="#161E26" font-size="20.313" textLength="64.865" font-family="'Segoe UI'">budget</text><text x="236.867" y="621.838" fill="#161E26" font-size="20.313" textLength="22.584" font-family="'Segoe UI'">de</text><text x="259.451" y="621.838" fill="#161E26" font-size="20.313" font-family="'Segoe UI'"> </text><text x="265.015" y="621.838" fill="#161E26" font-size="20.313" textLength="117.62" font-family="'Segoe UI'">l'intervention</text></g><!--entity U28--><g class="entity" data-qualified-name="M3 - Maintenance.U28" id="ent0013" data-source-line="22"><ellipse cx="309.155" cy="733.2" rx="98.218" ry="56.057" fill="#FFF" style="stroke:#106D99;stroke-width:1.563;"/><text x="284.047" y="705.264" fill="#161E26" font-size="20.313" textLength="50.216" font-family="'Segoe UI'">EF-28</text><text x="246.204" y="732.282" fill="#161E26" font-size="20.313" textLength="64.32" font-family="'Segoe UI'">Rouvrir</text><text x="310.524" y="732.282" fill="#161E26" font-size="20.313" font-family="'Segoe UI'"> </text><text x="316.088" y="732.282" fill="#161E26" font-size="20.313" textLength="22.118" font-family="'Segoe UI'">en</text><text x="338.206" y="732.282" fill="#161E26" font-size="20.313" font-family="'Segoe UI'"> </text><text x="343.77" y="732.282" fill="#161E26" font-size="20.313" textLength="28.336" font-family="'Segoe UI'">cas</text><text x="235.369" y="759.299" fill="#161E26" font-size="20.313" textLength="22.584" font-family="'Segoe UI'">de</text><text x="257.953" y="759.299" fill="#161E26" font-size="20.313" font-family="'Segoe UI'"> </text><text x="263.517" y="759.299" fill="#161E26" font-size="20.313" textLength="69.219" font-family="'Segoe UI'">récidive</text><text x="332.736" y="759.299" fill="#161E26" font-size="20.313" font-family="'Segoe UI'"> </text><text x="338.3" y="759.299" fill="#161E26" font-size="20.313" textLength="28.029" font-family="'Segoe UI'">(15</text><text x="366.329" y="759.299" fill="#161E26" font-size="20.313" font-family="'Segoe UI'"> </text><text x="371.893" y="759.299" fill="#161E26" font-size="20.313" textLength="11.049" font-family="'Segoe UI'">j)</text></g><!--entity DELEGUE--><g class="entity" data-qualified-name="DELEGUE" id="ent0001" data-source-line="9"><ellipse cx="57.031" cy="793.549" rx="25" ry="25" fill="#D6EDF7" style="stroke:#106D99;stroke-width:0.781;"/><path d="M57.031,824.799 C63.281,824.799 67.969,824.799 74.219,818.549 C86.719,818.549 99.219,831.049 99.219,843.549 L99.219,849.799 C99.219,856.049 92.969,862.299 86.719,862.299 L27.344,862.299 C21.094,862.299 14.844,856.049 14.844,849.799 L14.844,843.549 C14.844,831.049 27.344,818.549 39.844,818.549 C46.094,824.799 50.781,824.799 57.031,824.799" style="stroke:#106D99;stroke-width:0.781;" fill="#D6EDF7"/><text x="19.788" y="885" fill="#161E26" font-size="20.313" textLength="74.486" font-family="'Segoe UI'">Délégué</text></g><!--entity TECH--><g class="entity" data-qualified-name="TECH" id="ent0002" data-source-line="10"><ellipse cx="56.863" cy="337.299" rx="25" ry="25" fill="#D6EDF7" style="stroke:#106D99;stroke-width:0.781;"/><path d="M56.863,368.549 C63.113,368.549 67.801,368.549 74.051,362.299 C86.551,362.299 99.051,374.799 99.051,387.299 L99.051,393.549 C99.051,399.799 92.801,406.049 86.551,406.049 L27.176,406.049 C20.926,406.049 14.676,399.799 14.676,393.549 L14.676,387.299 C14.676,374.799 27.176,362.299 39.676,362.299 C45.926,368.549 50.613,368.549 56.863,368.549" style="stroke:#106D99;stroke-width:0.781;" fill="#D6EDF7"/><text x="9.375" y="428.75" fill="#161E26" font-size="20.313" textLength="94.977" font-family="'Segoe UI'">Technicien</text></g><!--entity PARTENAIRE--><g class="entity" data-qualified-name="PARTENAIRE" id="ent0003" data-source-line="11"><ellipse cx="57.075" cy="560.737" rx="25" ry="25" fill="#D6EDF7" style="stroke:#106D99;stroke-width:0.781;"/><path d="M57.075,591.987 C63.325,591.987 68.012,591.987 74.262,585.737 C86.762,585.737 99.262,598.237 99.262,610.737 L99.262,616.987 C99.262,623.237 93.012,629.487 86.762,629.487 L27.387,629.487 C21.137,629.487 14.887,623.237 14.887,616.987 L14.887,610.737 C14.887,598.237 27.387,585.737 39.887,585.737 C46.137,591.987 50.825,591.987 57.075,591.987" style="stroke:#106D99;stroke-width:0.781;" fill="#D6EDF7"/><text x="11.719" y="652.187" fill="#161E26" font-size="20.313" textLength="90.712" font-family="'Segoe UI'">Partenaire</text></g><g class="entity" data-qualified-name="GMN30" id="ent0031" data-source-line="44"><path d="M600,245.893 L600,323.835 A6.25,6.25 0 0 0 606.25,330.085 L952.655,330.085 A6.25,6.25 0 0 0 958.905,323.835 L958.905,255.268 L943.28,239.643 L606.25,239.643 A6.25,6.25 0 0 0 600,245.893" style="stroke:#C86A2C;stroke-width:0.781;" fill="#F7ECE2"/><path d="M943.28,239.643 L943.28,252.143 A3.125,3.125 0 0 0 946.405,255.268 L958.905,255.268 L943.28,239.643" style="stroke:#C86A2C;stroke-width:1.563;" fill="#F7ECE2"/><text x="609.375" y="267.688" fill="#161E26" font-size="18.75" textLength="18.631" font-family="'Segoe UI'">Le</text><text x="628.006" y="267.688" fill="#161E26" font-size="18.75" font-family="'Segoe UI'"> </text><text x="633.142" y="267.688" fill="#161E26" font-size="18.75" textLength="84.201" font-family="'Segoe UI'">technicien</text><text x="717.343" y="267.688" fill="#161E26" font-size="18.75" font-family="'Segoe UI'"> </text><text x="722.479" y="267.688" fill="#161E26" font-size="18.75" textLength="63.977" font-family="'Segoe UI'">déclare,</text><text x="786.456" y="267.688" fill="#161E26" font-size="18.75" font-family="'Segoe UI'"> </text><text x="791.592" y="267.688" fill="#161E26" font-size="18.75" textLength="21.222" font-family="'Segoe UI'">un</text><text x="812.814" y="267.688" fill="#161E26" font-size="18.75" font-family="'Segoe UI'"> </text><text x="817.95" y="267.688" fill="#161E26" font-size="18.75" textLength="35.175" font-family="'Segoe UI'">tiers</text><text x="853.125" y="267.688" fill="#161E26" font-size="18.75" font-family="'Segoe UI'"> </text><text x="858.261" y="267.688" fill="#161E26" font-size="18.75" textLength="77.206" font-family="'Segoe UI'">confirme.</text><text x="609.375" y="292.627" fill="#161E26" font-size="18.75" textLength="38.068" font-family="'Segoe UI'">Sans</text><text x="647.443" y="292.627" fill="#161E26" font-size="18.75" font-family="'Segoe UI'"> </text><text x="652.579" y="292.627" fill="#161E26" font-size="18.75" textLength="40.979" font-family="'Segoe UI'">cette</text><text x="693.558" y="292.627" fill="#161E26" font-size="18.75" font-family="'Segoe UI'"> </text><text x="698.694" y="292.627" fill="#161E26" font-size="18.75" textLength="109.433" font-family="'Segoe UI'">confirmation,</text><text x="808.127" y="292.627" fill="#161E26" font-size="18.75" font-family="'Segoe UI'"> </text><text x="813.263" y="292.627" fill="#161E26" font-size="18.75" textLength="28.519" font-family="'Segoe UI'">pas</text><text x="841.782" y="292.627" fill="#161E26" font-size="18.75" font-family="'Segoe UI'"> </text><text x="846.918" y="292.627" fill="#161E26" font-size="18.75" textLength="20.847" font-family="'Segoe UI'">de</text><text x="867.764" y="292.627" fill="#161E26" font-size="18.75" font-family="'Segoe UI'"> </text><text x="872.9" y="292.627" fill="#161E26" font-size="18.75" textLength="57.477" font-family="'Segoe UI'">clôture</text><text x="609.375" y="317.566" fill="#161E26" font-size="18.75" textLength="15.152" font-family="'Segoe UI'">ni</text><text x="624.527" y="317.566" fill="#161E26" font-size="18.75" font-family="'Segoe UI'"> </text><text x="629.663" y="317.566" fill="#161E26" font-size="18.75" textLength="20.847" font-family="'Segoe UI'">de</text><text x="650.51" y="317.566" fill="#161E26" font-size="18.75" font-family="'Segoe UI'"> </text><text x="655.646" y="317.566" fill="#161E26" font-size="18.75" textLength="60.846" font-family="'Segoe UI'">mesure</text><text x="716.492" y="317.566" fill="#161E26" font-size="18.75" font-family="'Segoe UI'"> </text><text x="721.628" y="317.566" fill="#161E26" font-size="18.75" textLength="20.847" font-family="'Segoe UI'">de</text><text x="742.474" y="317.566" fill="#161E26" font-size="18.75" font-family="'Segoe UI'"> </text><text x="747.61" y="317.566" fill="#161E26" font-size="18.75" textLength="39.468" font-family="'Segoe UI'">délai</text><text x="787.079" y="317.566" fill="#161E26" font-size="18.75" font-family="'Segoe UI'"> </text><text x="792.215" y="317.566" fill="#161E26" font-size="18.75" textLength="61.514" font-family="'Segoe UI'">(RG-04,</text><text x="853.729" y="317.566" fill="#161E26" font-size="18.75" font-family="'Segoe UI'"> </text><text x="858.865" y="317.566" fill="#161E26" font-size="18.75" textLength="56.076" font-family="'Segoe UI'">EF-24).</text></g><!--link DELEGUE to U20--><g class="link" data-entity-1="ent0001" data-entity-2="ent0005" id="lnk14" data-source-line="25" data-link-type="dependency"><path d="M100.297,842.455 C186.891,868.518 390.609,916.721 540.625,849.018 C569.328,836.065 561.453,813.596 587.5,795.893 C604.375,784.424 616.215,777.716 635.527,769.403" style="stroke:#106D99;stroke-width:1.563;" fill="none" id="DELEGUE-to-U20"/><polygon points="642.703,766.315,627.315,766.134,635.527,769.403,632.257,777.615,642.703,766.315" fill="#106D99" style="stroke:#106D99;stroke-width:1.563;stroke-linejoin:miter;stroke-miterlimit:10;"/></g><!--link DELEGUE to U21--><g class="link" data-entity-1="ent0001" data-entity-2="ent0006" id="lnk15" data-source-line="26" data-link-type="dependency"><path d="M100.203,830.893 C167.766,833.268 304.922,833.252 415.625,802.143 C475.719,785.252 495.219,780.924 540.625,738.08 C570.516,709.877 555.594,684.283 587.5,658.393 C611.906,638.596 635.267,627.194 664.954,617.632" style="stroke:#106D99;stroke-width:1.563;" fill="none" id="DELEGUE-to-U21"/><polygon points="672.391,615.237,657.089,613.599,664.954,617.632,660.922,625.497,672.391,615.237" fill="#106D99" style="stroke:#106D99;stroke-width:1.563;stroke-linejoin:miter;stroke-miterlimit:10;"/></g><!--link DELEGUE to U24--><g class="link" data-entity-1="ent0001" data-entity-2="ent0009" id="lnk16" data-source-line="27" data-link-type="dependency"><path d="M100.281,871.315 C115.172,883.721 132.906,895.658 151.563,902.143 C327.734,963.33 540.56,924.577 667.482,890.749" style="stroke:#106D99;stroke-width:1.563;" fill="none" id="DELEGUE-to-U24"/><polygon points="675.031,888.737,659.833,886.319,667.482,890.749,663.053,898.397,675.031,888.737" fill="#106D99" style="stroke:#106D99;stroke-width:1.563;stroke-linejoin:miter;stroke-miterlimit:10;"/></g><!--link DELEGUE to U27--><g class="link" data-entity-1="ent0001" data-entity-2="ent0012" id="lnk17" data-source-line="28" data-link-type="dependency"><path d="M88.031,767.44 C106.609,733.768 133.203,693.174 165.625,664.643 C183.328,649.065 198.149,639.58 219.367,629.361" style="stroke:#106D99;stroke-width:1.563;" fill="none" id="DELEGUE-to-U27"/><polygon points="226.406,625.971,211.025,626.442,219.367,629.361,216.448,637.704,226.406,625.971" fill="#106D99" style="stroke:#106D99;stroke-width:1.563;stroke-linejoin:miter;stroke-miterlimit:10;"/></g><!--link DELEGUE to U28--><g class="link" data-entity-1="ent0001" data-entity-2="ent0013" id="lnk18" data-source-line="29" data-link-type="dependency"><path d="M100.313,812.752 C134.672,799.612 177.14,783.371 219.312,767.246" style="stroke:#106D99;stroke-width:1.563;" fill="none" id="DELEGUE-to-U28"/><polygon points="226.609,764.455,211.242,763.64,219.312,767.246,215.706,775.315,226.609,764.455" fill="#106D99" style="stroke:#106D99;stroke-width:1.563;stroke-linejoin:miter;stroke-miterlimit:10;"/></g><!--link TECH to U22--><g class="link" data-entity-1="ent0002" data-entity-2="ent0007" id="lnk19" data-source-line="30" data-link-type="dependency"><path d="M105.063,346.893 C244.25,273.987 666.938,79.596 971.875,227.143 C1108.359,293.174 1196.907,450.809 1236.719,535.371" style="stroke:#106D99;stroke-width:1.563;" fill="none" id="TECH-to-U22"/><polygon points="1240.047,542.44,1239.711,527.055,1236.719,535.371,1228.402,532.379,1240.047,542.44" fill="#106D99" style="stroke:#106D99;stroke-width:1.563;stroke-linejoin:miter;stroke-miterlimit:10;"/></g><!--link TECH to U23--><g class="link" data-entity-1="ent0002" data-entity-2="ent0008" id="lnk20" data-source-line="31" data-link-type="dependency"><path d="M104.969,374.346 C173.219,377.487 304.641,384.877 415.625,399.018 C494.297,409.033 574.129,423.256 643.457,436.787" style="stroke:#106D99;stroke-width:1.563;" fill="none" id="TECH-to-U23"/><polygon points="651.125,438.283,638.52,429.455,643.457,436.787,636.126,441.724,651.125,438.283" fill="#106D99" style="stroke:#106D99;stroke-width:1.563;stroke-linejoin:miter;stroke-miterlimit:10;"/></g><!--link TECH to U26--><g class="link" data-entity-1="ent0002" data-entity-2="ent0011" id="lnk21" data-source-line="32" data-link-type="dependency"><path d="M104.891,389.283 C138.109,401.362 176.471,415.315 216.096,429.736" style="stroke:#106D99;stroke-width:1.563;" fill="none" id="TECH-to-U26"/><polygon points="223.438,432.408,212.361,421.726,216.096,429.736,208.085,433.472,223.438,432.408" fill="#106D99" style="stroke:#106D99;stroke-width:1.563;stroke-linejoin:miter;stroke-miterlimit:10;"/></g><!--link PARTENAIRE to U27--><g class="link" data-entity-1="ent0003" data-entity-2="ent0012" id="lnk22" data-source-line="33" data-link-type="dependency"><path d="M102.578,595.893 C132.906,595.893 166.578,595.893 204.313,595.893" style="stroke:#106D99;stroke-width:1.563;" fill="none" id="PARTENAIRE-to-U27"/><polygon points="212.125,595.893,198.063,589.643,204.313,595.893,198.063,602.143,212.125,595.893" fill="#106D99" style="stroke:#106D99;stroke-width:1.563;stroke-linejoin:miter;stroke-miterlimit:10;"/></g><!--link U20 to U22--><g class="link" data-entity-1="ent0005" data-entity-2="ent0007" id="lnk23" data-source-line="35" data-link-type="dependency"><path d="M919.797,688.908 C997.828,667.377 1085.907,643.065 1156.282,623.643" style="stroke:#106D99;stroke-width:1.563;stroke-dasharray:10.938,10.938;" fill="none" id="U20-to-U22"/><polygon points="1163.813,621.565,1148.594,619.281,1156.282,623.643,1151.919,631.331,1163.813,621.565" fill="#106D99" style="stroke:#106D99;stroke-width:1.563;stroke-linejoin:miter;stroke-miterlimit:10;"/><text x="1020.313" y="636.438" fill="#3B4855" font-size="18.75" textLength="78.781" font-family="'Segoe UI'">«include»</text></g><!--link U21 to U22--><g class="link" data-entity-1="ent0006" data-entity-2="ent0007" id="lnk24" data-source-line="36" data-link-type="dependency"><path d="M897.141,594.33 C972.781,594.33 1063.359,594.33 1138.969,594.33" style="stroke:#106D99;stroke-width:1.563;stroke-dasharray:10.938,10.938;" fill="none" id="U21-to-U22"/><polygon points="1146.781,594.33,1132.719,588.08,1138.969,594.33,1132.719,600.58,1146.781,594.33" fill="#106D99" style="stroke:#106D99;stroke-width:1.563;stroke-linejoin:miter;stroke-miterlimit:10;"/><text x="1020.313" y="589.563" fill="#3B4855" font-size="18.75" textLength="78.781" font-family="'Segoe UI'">«include»</text></g><!--link U23 to U22--><g class="link" data-entity-1="ent0008" data-entity-2="ent0007" id="lnk25" data-source-line="37" data-link-type="dependency"><path d="M898.359,496.205 C979.469,518.065 1078.707,544.797 1155.644,565.532" style="stroke:#106D99;stroke-width:1.563;stroke-dasharray:10.938,10.938;" fill="none" id="U23-to-U22"/><polygon points="1163.188,567.565,1151.236,557.871,1155.644,565.532,1147.983,569.94,1163.188,567.565" fill="#106D99" style="stroke:#106D99;stroke-width:1.563;stroke-linejoin:miter;stroke-miterlimit:10;"/><text x="1020.313" y="525.501" fill="#3B4855" font-size="18.75" textLength="78.781" font-family="'Segoe UI'">«include»</text></g><!--link U24 to U25--><g class="link" data-entity-1="ent0009" data-entity-2="ent0010" id="lnk26" data-source-line="38" data-link-type="dependency"><path d="M919.156,854.596 C995.266,853.362 1080.423,851.973 1150.423,850.833" style="stroke:#106D99;stroke-width:1.563;stroke-dasharray:10.938,10.938;" fill="none" id="U24-to-U25"/><polygon points="1158.234,850.705,1144.072,844.685,1150.423,850.833,1144.276,857.184,1158.234,850.705" fill="#106D99" style="stroke:#106D99;stroke-width:1.563;stroke-linejoin:miter;stroke-miterlimit:10;"/><text x="1020.313" y="845.813" fill="#3B4855" font-size="18.75" textLength="78.781" font-family="'Segoe UI'">«include»</text></g><!--link U24 to U22--><g class="link" data-entity-1="ent0009" data-entity-2="ent0007" id="lnk27" data-source-line="39" data-link-type="dependency"><path d="M891.313,827.768 C918.281,819.002 946.625,808.33 971.875,795.893 C1059.719,752.596 1144.81,689.868 1201.076,645.071" style="stroke:#106D99;stroke-width:1.563;stroke-dasharray:10.938,10.938;" fill="none" id="U24-to-U22"/><polygon points="1207.188,640.205,1192.293,644.075,1201.076,645.071,1200.079,653.854,1207.188,640.205" fill="#106D99" style="stroke:#106D99;stroke-width:1.563;stroke-linejoin:miter;stroke-miterlimit:10;"/><text x="1020.313" y="717.688" fill="#3B4855" font-size="18.75" textLength="78.781" font-family="'Segoe UI'">«include»</text></g><!--link U26 to U21--><g class="link" data-entity-1="ent0011" data-entity-2="ent0006" id="lnk28" data-source-line="40" data-link-type="dependency"><path d="M402.125,488.705 C482.188,511.19 590.823,541.701 672.791,564.733" style="stroke:#106D99;stroke-width:1.563;stroke-dasharray:10.938,10.938;" fill="none" id="U26-to-U21"/><polygon points="680.313,566.846,668.465,557.025,672.791,564.733,665.084,569.059,680.313,566.846" fill="#106D99" style="stroke:#106D99;stroke-width:1.563;stroke-linejoin:miter;stroke-miterlimit:10;"/><text x="464.063" y="505.188" fill="#3B4855" font-size="18.75" textLength="75.192" font-family="'Segoe UI'">«extend»</text></g><!--link U28 to U20--><g class="link" data-entity-1="ent0013" data-entity-2="ent0005" id="lnk29" data-source-line="41" data-link-type="dependency"><path d="M408.313,732.096 C460.188,731.393 518.032,730.623 579.579,729.795" style="stroke:#106D99;stroke-width:1.563;stroke-dasharray:10.938,10.938;" fill="none" id="U28-to-U20"/><polygon points="587.391,729.69,573.245,723.629,579.579,729.795,573.413,736.128,587.391,729.69" fill="#106D99" style="stroke:#106D99;stroke-width:1.563;stroke-linejoin:miter;stroke-miterlimit:10;"/><text x="464.063" y="727.063" fill="#3B4855" font-size="18.75" textLength="75.192" font-family="'Segoe UI'">«extend»</text></g><!--link U24 to GMN30--><g class="link" data-entity-1="ent0009" data-entity-2="ent0031" id="lnk32" data-source-line="44" data-link-type="association"><path d="M640.578,854.299 C588.609,845.69 534.328,825.924 501.563,783.393 C399.016,650.252 409.281,545.721 501.563,405.268 C524.813,369.877 560.953,344.846 599.563,327.158" style="stroke:#106D99;stroke-width:1.563;stroke-dasharray:10.938,10.938;" fill="none" id="U24-GMN30"/></g><?plantuml-src TLJRJXin47ttLqppKf2ID3T2L24a184YGOi2lArK6UyaSV7QMr-YLbN_fO_DU_yWFzQnTmDX4K-xCyTpvip5VYUrK257w7O_V7N-fy9k6Gh5c9TU8LoRFCJF43fmgJtQ5MelZNQ07WekoQMv5iYOmha7Ry3AnT93BYsAU92vHwbBRda1skJei8J-UCTfkNwCpd6FCIwyiT0wswpLPhq8ctKBk8EpwTNqudwwHUzGBBKK4dL2xwQddxRG3RTH3gLEqCt9x6xw-UHoDcKigk5wGQMqKYtNpz9Ry8i118U2EuAdvvr1BzDVmifA2q4Zo9swCxtdv49pXGKvsa0_b1DCe6ReW4hXVifzF-WrIVkPFfdFIGT6Ml1FTMIQUXaJRTPYkLbNcX97lyanoFHvh8-EhemAn4GLESzzyAIiu68f8yyVmidfjbe6JPvXfazfY5H9HI5CKL8P5dKUCbr9-num3bcXWr9k_WfqDTkmoJPAR7DfYuhDnkmFIZgNkXHxXiBe76XE6EnMrQZ9Sq0yN0bQk4JZiIXTflDNX7NyGJD-N5KLbAy8SkESH9ieIkA86nU7MCUFc_67cRuDSaNjfU27a2_GfrZrVdS5wkZ3PlGaqpDJRGrg8FzMkf2vN27izG_WsxRs2VlDMBtPqEaSfuLvQVSRzgXX7pRi2OjteJO6kyPmrnYpvtlnnCGeFRq0AH8-mj5H_IeS7nFIVnCPlecCQkJWJUHrpBX6-Wd17tG_ymHCQg3t4c3QqCu-6EzD0MPURzGLxbmjoAdzYbjifoj7o-1erwjLxTBXMqulcK3lSUjE2zA6agP4qnDgyyy7YtHKo-Weq94P_uXPSGbxiujERzI6T0_skuoaGTJ5_WC0?></g></svg>