<svg xmlns="http://www.w3.org/2000/svg" xmlns:xlink="http://www.w3.org/1999/xlink" version="1.1" data-diagram-type="DESCRIPTION" style="width:1076px;height:940px;background:#FFFFFF;" width="1076.563px" height="940.625px" viewBox="0 0 1076 940" zoomAndPan="magnify" preserveAspectRatio="none" contentStyleType="text/css"><?plantuml 1.2026.7?><defs/><g font-family="sans-serif" lengthAdjust="spacing"><g class="title" data-source-line="3"><text x="219.723" y="45.975" fill="#0B4763" font-size="28.125" textLength="626.18" font-weight="700" font-family="'Segoe UI'">Module M6 - Carte, tableau de bord et pilotage</text></g><!--cluster M6 - Restitution--><g class="cluster" data-qualified-name="M6 - Restitution" id="ent0005" data-source-line="14"><rect x="246.094" y="265.299" width="808.594" height="587.5" fill="#F7F9FB" style="stroke:#C3CDD8;stroke-width:1.563;" rx="6.25" ry="6.25"/><text x="572.399" y="290.343" fill="#0B4763" font-size="20.313" textLength="155.984" font-weight="700" font-family="'Segoe UI'">M6 - Restitution</text></g><!--entity U50--><g class="entity" data-qualified-name="M6 - Restitution.U50" id="ent0006" data-source-line="15"><ellipse cx="427.217" cy="376.425" rx="101.435" ry="54.876" fill="#FFF" style="stroke:#106D99;stroke-width:1.563;"/><text x="402.109" y="349.505" fill="#161E26" font-size="20.313" textLength="50.216" font-family="'Segoe UI'">EF-50</text><text x="349.096" y="376.522" fill="#161E26" font-size="20.313" textLength="85.574" font-family="'Segoe UI'">Consulter</text><text x="434.67" y="376.522" fill="#161E26" font-size="20.313" font-family="'Segoe UI'"> </text><text x="440.234" y="376.522" fill="#161E26" font-size="20.313" textLength="15.254" font-family="'Segoe UI'">la</text><text x="455.488" y="376.522" fill="#161E26" font-size="20.313" font-family="'Segoe UI'"> </text><text x="461.053" y="376.522" fill="#161E26" font-size="20.313" textLength="44.285" font-family="'Segoe UI'">carte</text><text x="353.628" y="403.539" fill="#161E26" font-size="20.313" textLength="31.203" font-family="'Segoe UI'">des</text><text x="384.831" y="403.539" fill="#161E26" font-size="20.313" font-family="'Segoe UI'"> </text><text x="390.395" y="403.539" fill="#161E26" font-size="20.313" textLength="55.76" font-family="'Segoe UI'">points</text><text x="446.155" y="403.539" fill="#161E26" font-size="20.313" font-family="'Segoe UI'"> </text><text x="451.72" y="403.539" fill="#161E26" font-size="20.313" textLength="49.085" font-family="'Segoe UI'">d'eau</text></g><!--entity U51--><g class="entity" data-qualified-name="M6 - Restitution.U51" id="ent0007" data-source-line="16"><ellipse cx="911.181" cy="378.146" rx="118.993" ry="55.815" fill="#FFF" style="stroke:#106D99;stroke-width:1.563;"/><text x="886.073" y="349.815" fill="#161E26" font-size="20.313" textLength="50.216" font-family="'Segoe UI'">EF-51</text><text x="848.81" y="376.832" fill="#161E26" font-size="20.313" textLength="55.582" font-family="'Segoe UI'">Ouvrir</text><text x="904.392" y="376.832" fill="#161E26" font-size="20.313" font-family="'Segoe UI'"> </text><text x="909.956" y="376.832" fill="#161E26" font-size="20.313" textLength="15.254" font-family="'Segoe UI'">la</text><text x="925.21" y="376.832" fill="#161E26" font-size="20.313" font-family="'Segoe UI'"> </text><text x="930.774" y="376.832" fill="#161E26" font-size="20.313" textLength="42.777" font-family="'Segoe UI'">fiche</text><text x="820.578" y="403.849" fill="#161E26" font-size="20.313" textLength="59.559" font-family="'Segoe UI'">depuis</text><text x="880.137" y="403.849" fill="#161E26" font-size="20.313" font-family="'Segoe UI'"> </text><text x="885.701" y="403.849" fill="#161E26" font-size="20.313" textLength="22.99" font-family="'Segoe UI'">un</text><text x="908.691" y="403.849" fill="#161E26" font-size="20.313" font-family="'Segoe UI'"> </text><text x="914.255" y="403.849" fill="#161E26" font-size="20.313" textLength="87.528" font-family="'Segoe UI'">marqueur</text></g><!--entity U52--><g class="entity" data-qualified-name="M6 - Restitution.U52" id="ent0008" data-source-line="17"><ellipse cx="911.316" cy="514.082" rx="119.128" ry="55.814" fill="#FFF" style="stroke:#106D99;stroke-width:1.563;"/><text x="886.208" y="485.749" fill="#161E26" font-size="20.313" textLength="50.216" font-family="'Segoe UI'">EF-52</text><text x="850.289" y="512.767" fill="#161E26" font-size="20.313" textLength="51.386" font-family="'Segoe UI'">Filtrer</text><text x="901.675" y="512.767" fill="#161E26" font-size="20.313" font-family="'Segoe UI'"> </text><text x="907.239" y="512.767" fill="#161E26" font-size="20.313" textLength="15.254" font-family="'Segoe UI'">la</text><text x="922.494" y="512.767" fill="#161E26" font-size="20.313" font-family="'Segoe UI'"> </text><text x="928.058" y="512.767" fill="#161E26" font-size="20.313" textLength="44.285" font-family="'Segoe UI'">carte</text><text x="820.604" y="539.784" fill="#161E26" font-size="20.313" textLength="45.257" font-family="'Segoe UI'">(état,</text><text x="865.861" y="539.784" fill="#161E26" font-size="20.313" font-family="'Segoe UI'"> </text><text x="871.425" y="539.784" fill="#161E26" font-size="20.313" textLength="57.704" font-family="'Segoe UI'">indice,</text><text x="929.129" y="539.784" fill="#161E26" font-size="20.313" font-family="'Segoe UI'"> </text><text x="934.693" y="539.784" fill="#161E26" font-size="20.313" textLength="67.335" font-family="'Segoe UI'">comité)</text></g><!--entity U53--><g class="entity" data-qualified-name="M6 - Restitution.U53" id="ent0009" data-source-line="18"><ellipse cx="427.511" cy="777.972" rx="103.292" ry="49.392" fill="#FFF" style="stroke:#106D99;stroke-width:1.563;"/><text x="402.403" y="756.29" fill="#161E26" font-size="20.313" textLength="50.216" font-family="'Segoe UI'">EF-53</text><text x="338.123" y="783.307" fill="#161E26" font-size="20.313" textLength="85.574" font-family="'Segoe UI'">Consulter</text><text x="423.697" y="783.307" fill="#161E26" font-size="20.313" font-family="'Segoe UI'"> </text><text x="429.261" y="783.307" fill="#161E26" font-size="20.313" textLength="15.542" font-family="'Segoe UI'">le</text><text x="444.803" y="783.307" fill="#161E26" font-size="20.313" font-family="'Segoe UI'"> </text><text x="450.367" y="783.307" fill="#161E26" font-size="20.313" textLength="66.531" font-family="'Segoe UI'">tableau</text><text x="374.939" y="810.324" fill="#161E26" font-size="20.313" textLength="22.584" font-family="'Segoe UI'">de</text><text x="397.523" y="810.324" fill="#161E26" font-size="20.313" font-family="'Segoe UI'"> </text><text x="403.087" y="810.324" fill="#161E26" font-size="20.313" textLength="42.867" font-family="'Segoe UI'">bord</text><text x="445.954" y="810.324" fill="#161E26" font-size="20.313" font-family="'Segoe UI'"> </text><text x="451.518" y="810.324" fill="#161E26" font-size="20.313" textLength="28.564" font-family="'Segoe UI'">KPI</text></g><!--entity U54--><g class="entity" data-qualified-name="M6 - Restitution.U54" id="ent0010" data-source-line="19"><ellipse cx="911.265" cy="776.491" rx="101.109" ry="51.817" fill="#FFF" style="stroke:#106D99;stroke-width:1.563;"/><text x="886.158" y="752.536" fill="#161E26" font-size="20.313" textLength="50.216" font-family="'Segoe UI'">EF-54</text><text x="828.354" y="779.553" fill="#161E26" font-size="20.313" textLength="51.386" font-family="'Segoe UI'">Filtrer</text><text x="879.74" y="779.553" fill="#161E26" font-size="20.313" font-family="'Segoe UI'"> </text><text x="885.305" y="779.553" fill="#161E26" font-size="20.313" textLength="17.506" font-family="'Segoe UI'">et</text><text x="902.81" y="779.553" fill="#161E26" font-size="20.313" font-family="'Segoe UI'"> </text><text x="908.374" y="779.553" fill="#161E26" font-size="20.313" textLength="85.802" font-family="'Segoe UI'">comparer</text><text x="847.958" y="806.57" fill="#161E26" font-size="20.313" textLength="43.402" font-family="'Segoe UI'">deux</text><text x="891.36" y="806.57" fill="#161E26" font-size="20.313" font-family="'Segoe UI'"> </text><text x="896.924" y="806.57" fill="#161E26" font-size="20.313" textLength="77.65" font-family="'Segoe UI'">périodes</text></g><!--entity U55--><g class="entity" data-qualified-name="M6 - Restitution.U55" id="ent0011" data-source-line="20"><ellipse cx="427.042" cy="648.253" rx="155.948" ry="55.61" fill="#FFF" style="stroke:#106D99;stroke-width:1.563;"/><text x="401.934" y="619.585" fill="#161E26" font-size="20.313" textLength="50.216" font-family="'Segoe UI'">EF-55</text><text x="354.892" y="646.602" fill="#161E26" font-size="20.313" textLength="75.071" font-family="'Segoe UI'">Exporter</text><text x="429.963" y="646.602" fill="#161E26" font-size="20.313" font-family="'Segoe UI'"> </text><text x="435.527" y="646.602" fill="#161E26" font-size="20.313" textLength="22.118" font-family="'Segoe UI'">en</text><text x="457.645" y="646.602" fill="#161E26" font-size="20.313" font-family="'Segoe UI'"> </text><text x="463.209" y="646.602" fill="#161E26" font-size="20.313" textLength="35.983" font-family="'Segoe UI'">CSV</text><text x="306.665" y="673.62" fill="#161E26" font-size="20.313" textLength="23.397" font-family="'Segoe UI'">ou</text><text x="330.062" y="673.62" fill="#161E26" font-size="20.313" font-family="'Segoe UI'"> </text><text x="335.626" y="673.62" fill="#161E26" font-size="20.313" textLength="69.447" font-family="'Segoe UI'">générer</text><text x="405.073" y="673.62" fill="#161E26" font-size="20.313" font-family="'Segoe UI'"> </text><text x="410.637" y="673.62" fill="#161E26" font-size="20.313" textLength="22.99" font-family="'Segoe UI'">un</text><text x="433.628" y="673.62" fill="#161E26" font-size="20.313" font-family="'Segoe UI'"> </text><text x="439.192" y="673.62" fill="#161E26" font-size="20.313" textLength="67.126" font-family="'Segoe UI'">rapport</text><text x="506.318" y="673.62" fill="#161E26" font-size="20.313" font-family="'Segoe UI'"> </text><text x="511.882" y="673.62" fill="#161E26" font-size="20.313" textLength="35.537" font-family="'Segoe UI'">PDF</text></g><!--entity U56--><g class="entity" data-qualified-name="M6 - Restitution.U56" id="ent0012" data-source-line="21"><ellipse cx="427.24" cy="512.537" rx="117.084" ry="55.832" fill="#FFF" style="stroke:#106D99;stroke-width:1.563;"/><text x="402.132" y="484.234" fill="#161E26" font-size="20.313" textLength="50.216" font-family="'Segoe UI'">EF-56</text><text x="357.852" y="511.251" fill="#161E26" font-size="20.313" textLength="85.574" font-family="'Segoe UI'">Consulter</text><text x="443.427" y="511.251" fill="#161E26" font-size="20.313" font-family="'Segoe UI'"> </text><text x="448.991" y="511.251" fill="#161E26" font-size="20.313" textLength="15.254" font-family="'Segoe UI'">la</text><text x="464.245" y="511.251" fill="#161E26" font-size="20.313" font-family="'Segoe UI'"> </text><text x="469.809" y="511.251" fill="#161E26" font-size="20.313" textLength="26.819" font-family="'Segoe UI'">file</text><text x="338.18" y="538.268" fill="#161E26" font-size="20.313" textLength="22.584" font-family="'Segoe UI'">de</text><text x="360.763" y="538.268" fill="#161E26" font-size="20.313" font-family="'Segoe UI'"> </text><text x="366.327" y="538.268" fill="#161E26" font-size="20.313" textLength="54.183" font-family="'Segoe UI'">travail</text><text x="420.511" y="538.268" fill="#161E26" font-size="20.313" font-family="'Segoe UI'"> </text><text x="426.075" y="538.268" fill="#161E26" font-size="20.313" textLength="23.457" font-family="'Segoe UI'">du</text><text x="449.531" y="538.268" fill="#161E26" font-size="20.313" font-family="'Segoe UI'"> </text><text x="455.095" y="538.268" fill="#161E26" font-size="20.313" textLength="61.205" font-family="'Segoe UI'">comité</text></g><!--entity USAGER--><g class="entity" data-qualified-name="USAGER" id="ent0001" data-source-line="9"><ellipse cx="75.781" cy="208.268" rx="25" ry="25" fill="#D6EDF7" style="stroke:#106D99;stroke-width:0.781;"/><path d="M75.781,239.518 C82.031,239.518 86.719,239.518 92.969,233.268 C105.469,233.268 117.969,245.768 117.969,258.268 L117.969,264.518 C117.969,270.768 111.719,277.018 105.469,277.018 L46.094,277.018 C39.844,277.018 33.594,270.768 33.594,264.518 L33.594,258.268 C33.594,245.768 46.094,233.268 58.594,233.268 C64.844,239.518 69.531,239.518 75.781,239.518" style="stroke:#106D99;stroke-width:0.781;" fill="#D6EDF7"/><text x="37.175" y="299.718" fill="#161E26" font-size="20.313" textLength="77.213" font-family="'Segoe UI'">Habitant</text></g><!--entity DELEGUE--><g class="entity" data-qualified-name="DELEGUE" id="ent0002" data-source-line="10"><ellipse cx="75.781" cy="498.893" rx="25" ry="25" fill="#D6EDF7" style="stroke:#106D99;stroke-width:0.781;"/><path d="M75.781,530.143 C82.031,530.143 86.719,530.143 92.969,523.893 C105.469,523.893 117.969,536.393 117.969,548.893 L117.969,555.143 C117.969,561.393 111.719,567.643 105.469,567.643 L46.094,567.643 C39.844,567.643 33.594,561.393 33.594,555.143 L33.594,548.893 C33.594,536.393 46.094,523.893 58.594,523.893 C64.844,530.143 69.531,530.143 75.781,530.143" style="stroke:#106D99;stroke-width:0.781;" fill="#D6EDF7"/><text x="38.538" y="590.343" fill="#161E26" font-size="20.313" textLength="74.486" font-family="'Segoe UI'">Délégué</text></g><!--entity PARTENAIRE--><g class="entity" data-qualified-name="PARTENAIRE" id="ent0003" data-source-line="11"><ellipse cx="75.706" cy="797.33" rx="25" ry="25" fill="#D6EDF7" style="stroke:#106D99;stroke-width:0.781;"/><path d="M75.706,828.58 C81.956,828.58 86.643,828.58 92.893,822.33 C105.393,822.33 117.893,834.83 117.893,847.33 L117.893,853.58 C117.893,859.83 111.643,866.08 105.393,866.08 L46.018,866.08 C39.768,866.08 33.518,859.83 33.518,853.58 L33.518,847.33 C33.518,834.83 46.018,822.33 58.518,822.33 C64.768,828.58 69.456,828.58 75.706,828.58" style="stroke:#106D99;stroke-width:0.781;" fill="#D6EDF7"/><text x="10.156" y="888.781" fill="#161E26" font-size="20.313" textLength="90.712" font-family="'Segoe UI'">Partenaire</text><text x="10.156" y="915.798" fill="#161E26" font-size="20.313" textLength="50.573" font-family="'Segoe UI'">(ONG</text><text x="60.729" y="915.798" fill="#161E26" font-size="20.313" font-family="'Segoe UI'"> </text><text x="66.293" y="915.798" fill="#161E26" font-size="20.313" font-family="'Segoe UI'">/</text><text x="74.208" y="915.798" fill="#161E26" font-size="20.313" font-family="'Segoe UI'"> </text><text x="79.772" y="915.798" fill="#161E26" font-size="20.313" textLength="61.483" font-family="'Segoe UI'">mairie)</text></g><!--entity ADMIN--><g class="entity" data-qualified-name="ADMIN" id="ent0004" data-source-line="12"><ellipse cx="75.802" cy="650.455" rx="25" ry="25" fill="#D6EDF7" style="stroke:#106D99;stroke-width:0.781;"/><path d="M75.802,681.705 C82.052,681.705 86.74,681.705 92.99,675.455 C105.49,675.455 117.99,687.955 117.99,700.455 L117.99,706.705 C117.99,712.955 111.74,719.205 105.49,719.205 L46.115,719.205 C39.865,719.205 33.615,712.955 33.615,706.705 L33.615,700.455 C33.615,687.955 46.115,675.455 58.615,675.455 C64.865,681.705 69.552,681.705 75.802,681.705" style="stroke:#106D99;stroke-width:0.781;" fill="#D6EDF7"/><text x="9.375" y="741.906" fill="#161E26" font-size="20.313" textLength="132.854" font-family="'Segoe UI'">Administrateur</text></g><g class="entity" data-qualified-name="GMN26" id="ent0027" data-source-line="40"><path d="M237.5,155.924 L237.5,233.866 A6.25,6.25 0 0 0 243.75,240.116 L611.102,240.116 A6.25,6.25 0 0 0 617.352,233.866 L617.352,165.299 L601.727,149.674 L243.75,149.674 A6.25,6.25 0 0 0 237.5,155.924" style="stroke:#C86A2C;stroke-width:0.781;" fill="#F7ECE2"/><path d="M601.727,149.674 L601.727,162.174 A3.125,3.125 0 0 0 604.852,165.299 L617.352,165.299 L601.727,149.674" style="stroke:#C86A2C;stroke-width:1.563;" fill="#F7ECE2"/><text x="246.875" y="177.72" fill="#161E26" font-size="18.75" textLength="26.367" font-family="'Segoe UI'">KPI</text><text x="273.242" y="177.72" fill="#161E26" font-size="18.75" font-family="'Segoe UI'"> </text><text x="278.378" y="177.72" fill="#161E26" font-size="18.75" textLength="97.833" font-family="'Segoe UI'">obligatoires</text><text x="376.212" y="177.72" fill="#161E26" font-size="18.75" font-family="'Segoe UI'"> </text><text x="381.348" y="177.72" fill="#161E26" font-size="18.75" font-family="'Segoe UI'">:</text><text x="385.413" y="177.72" fill="#161E26" font-size="18.75" font-family="'Segoe UI'"> </text><text x="390.549" y="177.72" fill="#161E26" font-size="18.75" textLength="51.288" font-family="'Segoe UI'">temps</text><text x="441.837" y="177.72" fill="#161E26" font-size="18.75" font-family="'Segoe UI'"> </text><text x="446.973" y="177.72" fill="#161E26" font-size="18.75" textLength="20.847" font-family="'Segoe UI'">de</text><text x="467.819" y="177.72" fill="#161E26" font-size="18.75" font-family="'Segoe UI'"> </text><text x="472.955" y="177.72" fill="#161E26" font-size="18.75" textLength="120.959" font-family="'Segoe UI'">rétablissement</text><text x="246.875" y="202.659" fill="#161E26" font-size="18.75" textLength="77.151" font-family="'Segoe UI'">(médiane</text><text x="324.026" y="202.659" fill="#161E26" font-size="18.75" font-family="'Segoe UI'"> </text><text x="329.163" y="202.659" fill="#161E26" font-size="18.75" textLength="16.159" font-family="'Segoe UI'">et</text><text x="345.322" y="202.659" fill="#161E26" font-size="18.75" font-family="'Segoe UI'"> </text><text x="350.458" y="202.659" fill="#161E26" font-size="18.75" textLength="40.439" font-family="'Segoe UI'">P90),</text><text x="390.897" y="202.659" fill="#161E26" font-size="18.75" font-family="'Segoe UI'"> </text><text x="396.033" y="202.659" fill="#161E26" font-size="18.75" textLength="86.792" font-family="'Segoe UI'">répartition</text><text x="482.825" y="202.659" fill="#161E26" font-size="18.75" font-family="'Segoe UI'"> </text><text x="487.961" y="202.659" fill="#161E26" font-size="18.75" textLength="28.802" font-family="'Segoe UI'">des</text><text x="516.763" y="202.659" fill="#161E26" font-size="18.75" font-family="'Segoe UI'"> </text><text x="521.899" y="202.659" fill="#161E26" font-size="18.75" textLength="44.073" font-family="'Segoe UI'">états,</text><text x="246.875" y="227.598" fill="#161E26" font-size="18.75" textLength="54.52" font-family="'Segoe UI'">alertes</text><text x="301.395" y="227.598" fill="#161E26" font-size="18.75" font-family="'Segoe UI'"> </text><text x="306.531" y="227.598" fill="#161E26" font-size="18.75" textLength="59.903" font-family="'Segoe UI'">actives,</text><text x="366.434" y="227.598" fill="#161E26" font-size="18.75" font-family="'Segoe UI'"> </text><text x="371.57" y="227.598" fill="#161E26" font-size="18.75" textLength="39.468" font-family="'Segoe UI'">délai</text><text x="411.038" y="227.598" fill="#161E26" font-size="18.75" font-family="'Segoe UI'"> </text><text x="416.174" y="227.598" fill="#161E26" font-size="18.75" textLength="56.497" font-family="'Segoe UI'">comité</text><text x="472.672" y="227.598" fill="#161E26" font-size="18.75" font-family="'Segoe UI'"> </text><text x="477.808" y="227.598" fill="#161E26" font-size="18.75" font-family="'Segoe UI'">→</text><text x="493.985" y="227.598" fill="#161E26" font-size="18.75" font-family="'Segoe UI'"> </text><text x="499.121" y="227.598" fill="#161E26" font-size="18.75" textLength="88.266" font-family="'Segoe UI'">technicien.</text></g><!--link USAGER to U50--><g class="link" data-entity-1="ent0001" data-entity-2="ent0006" id="lnk13" data-source-line="24" data-link-type="dependency"><path d="M119.375,259.44 C174.766,280.549 266.091,315.359 336.482,342.203" style="stroke:#106D99;stroke-width:1.563;" fill="none" id="USAGER-to-U50"/><polygon points="343.781,344.987,332.869,334.136,336.482,342.203,328.415,345.816,343.781,344.987" fill="#106D99" style="stroke:#106D99;stroke-width:1.563;stroke-linejoin:miter;stroke-miterlimit:10;"/></g><!--link USAGER to U51--><g class="link" data-entity-1="ent0001" data-entity-2="ent0007" id="lnk14" data-source-line="25" data-link-type="dependency"><path d="M118.75,205.002 C148.297,180.33 190.328,150.487 233.594,137.174 C396.531,87.018 456.719,79.596 617.188,137.174 C721.406,174.565 809.85,261.125 861.663,319.922" style="stroke:#106D99;stroke-width:1.563;" fill="none" id="USAGER-to-U51"/><polygon points="866.828,325.783,862.22,311.101,861.663,319.922,852.842,319.365,866.828,325.783" fill="#106D99" style="stroke:#106D99;stroke-width:1.563;stroke-linejoin:miter;stroke-miterlimit:10;"/></g><!--link DELEGUE to U56--><g class="link" data-entity-1="ent0002" data-entity-2="ent0012" id="lnk15" data-source-line="26" data-link-type="dependency"><path d="M119.375,531.408 C166.609,528.44 237.515,523.991 303.328,519.866" style="stroke:#106D99;stroke-width:1.563;" fill="none" id="DELEGUE-to-U56"/><polygon points="311.125,519.377,296.699,514.019,303.328,519.866,297.481,526.495,311.125,519.377" fill="#106D99" style="stroke:#106D99;stroke-width:1.563;stroke-linejoin:miter;stroke-miterlimit:10;"/></g><!--link DELEGUE to U55--><g class="link" data-entity-1="ent0002" data-entity-2="ent0011" id="lnk16" data-source-line="27" data-link-type="dependency"><path d="M119.375,547.815 C166.609,563.268 237.888,586.603 303.7,608.149" style="stroke:#106D99;stroke-width:1.563;" fill="none" id="DELEGUE-to-U55"/><polygon points="311.125,610.58,299.705,600.265,303.7,608.149,295.816,612.145,311.125,610.58" fill="#106D99" style="stroke:#106D99;stroke-width:1.563;stroke-linejoin:miter;stroke-miterlimit:10;"/></g><!--link PARTENAIRE to U53--><g class="link" data-entity-1="ent0003" data-entity-2="ent0009" id="lnk17" data-source-line="28" data-link-type="dependency"><path d="M141.656,833.862 C194.953,823.346 263.757,809.764 323.945,797.889" style="stroke:#106D99;stroke-width:1.563;" fill="none" id="PARTENAIRE-to-U53"/><polygon points="331.609,796.377,316.603,792.967,323.945,797.889,319.023,805.231,331.609,796.377" fill="#106D99" style="stroke:#106D99;stroke-width:1.563;stroke-linejoin:miter;stroke-miterlimit:10;"/></g><!--link PARTENAIRE to U54--><g class="link" data-entity-1="ent0003" data-entity-2="ent0010" id="lnk18" data-source-line="29" data-link-type="dependency"><path d="M141.594,850.018 C243.031,854.565 446.313,859.815 617.188,840.299 C686.578,832.377 756.147,817.019 813.725,802.394" style="stroke:#106D99;stroke-width:1.563;" fill="none" id="PARTENAIRE-to-U54"/><polygon points="821.297,800.471,806.129,797.875,813.725,802.394,809.206,809.991,821.297,800.471" fill="#106D99" style="stroke:#106D99;stroke-width:1.563;stroke-linejoin:miter;stroke-miterlimit:10;"/></g><!--link PARTENAIRE to U55--><g class="link" data-entity-1="ent0003" data-entity-2="ent0011" id="lnk19" data-source-line="30" data-link-type="dependency"><path d="M141.797,783.299 C168.563,759.565 200.953,733.877 233.594,715.299 C255.703,702.705 273.273,694.62 297.601,685.557" style="stroke:#106D99;stroke-width:1.563;" fill="none" id="PARTENAIRE-to-U55"/><polygon points="304.922,682.83,289.562,681.882,297.601,685.557,293.926,693.596,304.922,682.83" fill="#106D99" style="stroke:#106D99;stroke-width:1.563;stroke-linejoin:miter;stroke-miterlimit:10;"/></g><!--link ADMIN to U53--><g class="link" data-entity-1="ent0004" data-entity-2="ent0009" id="lnk20" data-source-line="31" data-link-type="dependency"><path d="M142.469,702.846 C197.234,717.33 268.494,736.192 329.103,752.223" style="stroke:#106D99;stroke-width:1.563;" fill="none" id="ADMIN-to-U53"/><polygon points="336.656,754.221,324.659,744.583,329.103,752.223,321.463,756.667,336.656,754.221" fill="#106D99" style="stroke:#106D99;stroke-width:1.563;stroke-linejoin:miter;stroke-miterlimit:10;"/></g><!--link U50 to U52--><g class="link" data-entity-1="ent0006" data-entity-2="ent0008" id="lnk21" data-source-line="33" data-link-type="dependency"><path d="M517.594,401.612 C600.156,425.252 715.583,458.274 801.661,482.915" style="stroke:#106D99;stroke-width:1.563;stroke-dasharray:10.938,10.938;" fill="none" id="U50-to-U52"/><polygon points="809.172,485.065,797.372,475.186,801.661,482.915,793.932,487.203,809.172,485.065" fill="#106D99" style="stroke:#106D99;stroke-width:1.563;stroke-linejoin:miter;stroke-miterlimit:10;"/><text x="665.625" y="440.22" fill="#3B4855" font-size="18.75" textLength="78.781" font-family="'Segoe UI'">«include»</text></g><!--link U50 to U51--><g class="link" data-entity-1="ent0006" data-entity-2="ent0007" id="lnk22" data-source-line="34" data-link-type="dependency"><path d="M529.047,376.565 C605.641,376.815 703.625,377.133 784.188,377.398" style="stroke:#106D99;stroke-width:1.563;stroke-dasharray:10.938,10.938;" fill="none" id="U50-to-U51"/><polygon points="792,377.424,777.958,371.128,784.188,377.398,777.917,383.628,792,377.424" fill="#106D99" style="stroke:#106D99;stroke-width:1.563;stroke-linejoin:miter;stroke-miterlimit:10;"/><text x="667.188" y="373.032" fill="#3B4855" font-size="18.75" textLength="75.192" font-family="'Segoe UI'">«extend»</text></g><!--link U53 to U54--><g class="link" data-entity-1="ent0009" data-entity-2="ent0010" id="lnk23" data-source-line="35" data-link-type="dependency"><path d="M530.797,777.471 C613.172,777.205 720.625,776.856 802.281,776.59" style="stroke:#106D99;stroke-width:1.563;stroke-dasharray:10.938,10.938;" fill="none" id="U53-to-U54"/><polygon points="810.094,776.565,796.011,770.36,802.281,776.59,796.052,782.86,810.094,776.565" fill="#106D99" style="stroke:#106D99;stroke-width:1.563;stroke-linejoin:miter;stroke-miterlimit:10;"/><text x="665.625" y="771.47" fill="#3B4855" font-size="18.75" textLength="78.781" font-family="'Segoe UI'">«include»</text></g><!--link U55 to U54--><g class="link" data-entity-1="ent0011" data-entity-2="ent0010" id="lnk24" data-source-line="36" data-link-type="dependency"><path d="M553.266,681.268 C637.234,703.658 738.499,730.66 813.624,750.707" style="stroke:#106D99;stroke-width:1.563;stroke-dasharray:10.938,10.938;" fill="none" id="U55-to-U54"/><polygon points="821.172,752.721,809.196,743.057,813.624,750.707,805.973,755.134,821.172,752.721" fill="#106D99" style="stroke:#106D99;stroke-width:1.563;stroke-linejoin:miter;stroke-miterlimit:10;"/><text x="665.625" y="707.407" fill="#3B4855" font-size="18.75" textLength="78.781" font-family="'Segoe UI'">«include»</text></g><!--link U56 to U52--><g class="link" data-entity-1="ent0012" data-entity-2="ent0008" id="lnk25" data-source-line="37" data-link-type="dependency"><path d="M544.609,512.549 C619.578,512.799 709.109,513.086 784.375,513.336" style="stroke:#106D99;stroke-width:1.563;stroke-dasharray:10.938,10.938;" fill="none" id="U56-to-U52"/><polygon points="792.188,513.362,778.146,507.065,784.375,513.336,778.104,519.565,792.188,513.362" fill="#106D99" style="stroke:#106D99;stroke-width:1.563;stroke-linejoin:miter;stroke-miterlimit:10;"/><text x="665.625" y="508.97" fill="#3B4855" font-size="18.75" textLength="78.781" font-family="'Segoe UI'">«include»</text></g><!--link U53 to GMN26--><g class="link" data-entity-1="ent0009" data-entity-2="ent0027" id="lnk28" data-source-line="40" data-link-type="association"><path d="M324.453,772.768 C274.766,764.518 219.234,745.455 187.891,702.799 C136.906,633.408 142.688,388.596 187.891,315.299 C208.156,282.424 240.453,258.237 274.844,240.533" style="stroke:#106D99;stroke-width:1.563;stroke-dasharray:10.938,10.938;" fill="none" id="U53-GMN26"/></g><?plantuml-src TLJRJjj047tVhvZcfI0b8I6nfLO8AIA6eXQ8GkcJfMfZRyA8zQwx5vIgwci_e7_Xx_2Vz4iwQnmkHZnPCsVEpkNC-1sgJFfSm71uyDswdr8CIrz8nXmwAU12vpvyOXZ02JTEzC7nbHJS0t5MskGW79GejUCRmPWKQmTEWy7DhOCSZSWSQiNi7QgI6rw0qhcmeeHn_CnfkBeBpdZ46C-SDj3xn5Vek78zu1PkhcTdoN87pUjArjN6rrK3pfCloTbDiaCNeKp5ANMgzgukp-002h9Gx3VHYzdoQt8vEry-4cPvWGgjCzm9RvgWsVpY_9AnK3rN6nf0hvd0KbWQYmyTzU0N0_1MPDmId9mEeb6gJhIoNZfXG7B8GY6fedQXrAYSXVmz3UwXeMZKfOzJTUNl3JRSDMQt3RVqQC4hQi7yyBloRg9nbtsOgbEKphn8lLTNZhi-eCen8-aoNQ2hg_tsaSFk8vCN7OYTrA6E1wq_ByvRxgJBdJuLG1j1cKXPOGBLRw6iAuD1-9OzxRAZL2NRKfkGM2WukVwMAkrXKrUAgEIa4HXUXWXOp4_RPwBkCt57WZNAPef0ujvpb93xtH3Q9sBscx67zOB1uBWHveKvPkr-jNRSiIFsj56jQ_BQDNtjYbYpPOySHgdf2eDn21_XwAYzpEFZPyYuGSIMDZnlW4aBJ5zHeZUH-8qqJ6aNX7PE5w3NhSgaEUYLn0rtcexA4ic9ehJX1s32WX5chIY4SXIzLzHLZbo9i0MB3wFzVWYYNQ33eRE1S0tDLje-HNCfI78BT8buBsmVSZfjZZkDuD-VlvGikrMOeL13Hbr3A9Bz1m00?></g></svg>