<svg xmlns="http://www.w3.org/2000/svg" xmlns:xlink="http://www.w3.org/1999/xlink" version="1.1" data-diagram-type="DESCRIPTION" style="width:1612px;height:679px;background:#FFFFFF;" width="1612.5px" height="679.688px" viewBox="0 0 1612 679" zoomAndPan="magnify" preserveAspectRatio="none" contentStyleType="text/css"><?plantuml 1.2026.7?><defs/><g font-family="sans-serif" lengthAdjust="spacing"><g class="title" data-source-line="3"><text x="526.336" y="45.975" fill="#0B4763" font-size="28.125" textLength="548.891" font-weight="700" font-family="'Segoe UI'">Module M1 - Référentiel des points d'eau</text></g><!--cluster M1 - Référentiel--><g class="cluster" data-qualified-name="M1 - R.f.rentiel" id="ent0005" data-source-line="14"><rect x="215.625" y="197.565" width="1375" height="446.875" fill="#F7F9FB" style="stroke:#C3CDD8;stroke-width:1.563;" rx="6.25" ry="6.25"/><text x="825.441" y="222.609" fill="#0B4763" font-size="20.313" textLength="155.369" font-weight="700" font-family="'Segoe UI'">M1 - Référentiel</text></g><!--entity U01--><g class="entity" data-qualified-name="M1 - R.f.rentiel.U01" id="ent0006" data-source-line="15"><ellipse cx="843.842" cy="497.418" rx="139.936" ry="48.29" fill="#FFF" style="stroke:#106D99;stroke-width:1.563;"/><text x="818.734" y="476.121" fill="#161E26" font-size="20.313" textLength="50.216" font-family="'Segoe UI'">EF-01</text><text x="718.138" y="503.138" fill="#161E26" font-size="20.313" textLength="47.945" font-family="'Segoe UI'">Créer</text><text x="766.083" y="503.138" fill="#161E26" font-size="20.313" font-family="'Segoe UI'"> </text><text x="771.647" y="503.138" fill="#161E26" font-size="20.313" font-family="'Segoe UI'">/</text><text x="779.562" y="503.138" fill="#161E26" font-size="20.313" font-family="'Segoe UI'"> </text><text x="785.126" y="503.138" fill="#161E26" font-size="20.313" textLength="75.24" font-family="'Segoe UI'">modifier</text><text x="860.366" y="503.138" fill="#161E26" font-size="20.313" font-family="'Segoe UI'"> </text><text x="865.93" y="503.138" fill="#161E26" font-size="20.313" font-family="'Segoe UI'">/</text><text x="873.844" y="503.138" fill="#161E26" font-size="20.313" font-family="'Segoe UI'"> </text><text x="879.409" y="503.138" fill="#161E26" font-size="20.313" textLength="90.137" font-family="'Segoe UI'">désactiver</text><text x="778.669" y="530.156" fill="#161E26" font-size="20.313" textLength="22.99" font-family="'Segoe UI'">un</text><text x="801.66" y="530.156" fill="#161E26" font-size="20.313" font-family="'Segoe UI'"> </text><text x="807.224" y="530.156" fill="#161E26" font-size="20.313" textLength="47.141" font-family="'Segoe UI'">point</text><text x="854.365" y="530.156" fill="#161E26" font-size="20.313" font-family="'Segoe UI'"> </text><text x="859.929" y="530.156" fill="#161E26" font-size="20.313" textLength="49.085" font-family="'Segoe UI'">d'eau</text></g><!--entity U02--><g class="entity" data-qualified-name="M1 - R.f.rentiel.U02" id="ent0007" data-source-line="16"><ellipse cx="1380.508" cy="497.626" rx="185.195" ry="55.53" fill="#FFF" style="stroke:#106D99;stroke-width:1.563;"/><text x="1355.4" y="468.826" fill="#161E26" font-size="20.313" textLength="50.216" font-family="'Segoe UI'">EF-02</text><text x="1275.672" y="495.843" fill="#161E26" font-size="20.313" textLength="85.148" font-family="'Segoe UI'">Rattacher</text><text x="1360.82" y="495.843" fill="#161E26" font-size="20.313" font-family="'Segoe UI'"> </text><text x="1366.384" y="495.843" fill="#161E26" font-size="20.313" font-family="'Segoe UI'">à</text><text x="1376.719" y="495.843" fill="#161E26" font-size="20.313" font-family="'Segoe UI'"> </text><text x="1382.283" y="495.843" fill="#161E26" font-size="20.313" textLength="33.613" font-family="'Segoe UI'">une</text><text x="1415.896" y="495.843" fill="#161E26" font-size="20.313" font-family="'Segoe UI'"> </text><text x="1421.46" y="495.843" fill="#161E26" font-size="20.313" textLength="63.883" font-family="'Segoe UI'">localité</text><text x="1236.629" y="522.861" fill="#161E26" font-size="20.313" textLength="64.091" font-family="'Segoe UI'">(région</text><text x="1300.72" y="522.861" fill="#161E26" font-size="20.313" font-family="'Segoe UI'"> </text><text x="1306.285" y="522.861" fill="#161E26" font-size="20.313" font-family="'Segoe UI'">→</text><text x="1323.81" y="522.861" fill="#161E26" font-size="20.313" font-family="'Segoe UI'"> </text><text x="1329.374" y="522.861" fill="#161E26" font-size="20.313" textLength="89.889" font-family="'Segoe UI'">commune</text><text x="1419.263" y="522.861" fill="#161E26" font-size="20.313" font-family="'Segoe UI'"> </text><text x="1424.827" y="522.861" fill="#161E26" font-size="20.313" font-family="'Segoe UI'">→</text><text x="1442.353" y="522.861" fill="#161E26" font-size="20.313" font-family="'Segoe UI'"> </text><text x="1447.917" y="522.861" fill="#161E26" font-size="20.313" textLength="76.469" font-family="'Segoe UI'">quartier)</text></g><!--entity U03--><g class="entity" data-qualified-name="M1 - R.f.rentiel.U03" id="ent0008" data-source-line="17"><ellipse cx="843.534" cy="310.315" rx="132.596" ry="55.719" fill="#FFF" style="stroke:#106D99;stroke-width:1.563;"/><text x="818.426" y="281.825" fill="#161E26" font-size="20.313" textLength="50.216" font-family="'Segoe UI'">EF-03</text><text x="766.167" y="308.842" fill="#161E26" font-size="20.313" textLength="85.574" font-family="'Segoe UI'">Consulter</text><text x="851.741" y="308.842" fill="#161E26" font-size="20.313" font-family="'Segoe UI'"> </text><text x="857.305" y="308.842" fill="#161E26" font-size="20.313" textLength="15.254" font-family="'Segoe UI'">la</text><text x="872.559" y="308.842" fill="#161E26" font-size="20.313" font-family="'Segoe UI'"> </text><text x="878.123" y="308.842" fill="#161E26" font-size="20.313" textLength="42.777" font-family="'Segoe UI'">fiche</text><text x="741.956" y="335.859" fill="#161E26" font-size="20.313" textLength="79.296" font-family="'Segoe UI'">publique</text><text x="821.252" y="335.859" fill="#161E26" font-size="20.313" font-family="'Segoe UI'"> </text><text x="826.817" y="335.859" fill="#161E26" font-size="20.313" textLength="39.623" font-family="'Segoe UI'">d'un</text><text x="866.44" y="335.859" fill="#161E26" font-size="20.313" font-family="'Segoe UI'"> </text><text x="872.004" y="335.859" fill="#161E26" font-size="20.313" textLength="73.107" font-family="'Segoe UI'">ouvrage</text></g><!--entity U04--><g class="entity" data-qualified-name="M1 - R.f.rentiel.U04" id="ent0009" data-source-line="18"><ellipse cx="1380.793" cy="331.578" rx="111.262" ry="55.888" fill="#FFF" style="stroke:#106D99;stroke-width:1.563;"/><text x="1355.685" y="303.367" fill="#161E26" font-size="20.313" textLength="50.216" font-family="'Segoe UI'">EF-04</text><text x="1324.002" y="330.384" fill="#161E26" font-size="20.313" textLength="85.029" font-family="'Segoe UI'">Historiser</text><text x="1409.03" y="330.384" fill="#161E26" font-size="20.313" font-family="'Segoe UI'"> </text><text x="1414.595" y="330.384" fill="#161E26" font-size="20.313" textLength="22.99" font-family="'Segoe UI'">un</text><text x="1296.439" y="357.401" fill="#161E26" font-size="20.313" textLength="111.788" font-family="'Segoe UI'">changement</text><text x="1408.227" y="357.401" fill="#161E26" font-size="20.313" font-family="'Segoe UI'"> </text><text x="1413.791" y="357.401" fill="#161E26" font-size="20.313" textLength="51.357" font-family="'Segoe UI'">d'état</text></g><!--entity U05--><g class="entity" data-qualified-name="M1 - R.f.rentiel.U05" id="ent0010" data-source-line="19"><ellipse cx="366.53" cy="563.483" rx="125.905" ry="55.762" fill="#FFF" style="stroke:#106D99;stroke-width:1.563;"/><text x="341.422" y="535.065" fill="#161E26" font-size="20.313" textLength="50.216" font-family="'Segoe UI'">EF-05</text><text x="298.432" y="562.082" fill="#161E26" font-size="20.313" textLength="78.374" font-family="'Segoe UI'">Importer</text><text x="376.805" y="562.082" fill="#161E26" font-size="20.313" font-family="'Segoe UI'"> </text><text x="382.369" y="562.082" fill="#161E26" font-size="20.313" textLength="22.99" font-family="'Segoe UI'">un</text><text x="405.36" y="562.082" fill="#161E26" font-size="20.313" font-family="'Segoe UI'"> </text><text x="410.924" y="562.082" fill="#161E26" font-size="20.313" textLength="23.705" font-family="'Segoe UI'">lot</text><text x="270.348" y="589.099" fill="#161E26" font-size="20.313" textLength="22.584" font-family="'Segoe UI'">de</text><text x="292.932" y="589.099" fill="#161E26" font-size="20.313" font-family="'Segoe UI'"> </text><text x="298.496" y="589.099" fill="#161E26" font-size="20.313" textLength="55.76" font-family="'Segoe UI'">points</text><text x="354.256" y="589.099" fill="#161E26" font-size="20.313" font-family="'Segoe UI'"> </text><text x="359.82" y="589.099" fill="#161E26" font-size="20.313" textLength="49.085" font-family="'Segoe UI'">d'eau</text><text x="408.906" y="589.099" fill="#161E26" font-size="20.313" font-family="'Segoe UI'"> </text><text x="414.47" y="589.099" fill="#161E26" font-size="20.313" textLength="48.242" font-family="'Segoe UI'">(CSV)</text></g><!--entity U06--><g class="entity" data-qualified-name="M1 - R.f.rentiel.U06" id="ent0011" data-source-line="20"><ellipse cx="366.445" cy="433.278" rx="96.133" ry="48.213" fill="#FFF" style="stroke:#106D99;stroke-width:1.563;"/><text x="341.337" y="412.973" fill="#161E26" font-size="20.313" textLength="50.216" font-family="'Segoe UI'">EF-06</text><text x="281.302" y="439.991" fill="#161E26" font-size="20.313" textLength="65.212" font-family="'Segoe UI'">Joindre</text><text x="346.514" y="439.991" fill="#161E26" font-size="20.313" font-family="'Segoe UI'"> </text><text x="352.079" y="439.991" fill="#161E26" font-size="20.313" textLength="31.203" font-family="'Segoe UI'">des</text><text x="383.281" y="439.991" fill="#161E26" font-size="20.313" font-family="'Segoe UI'"> </text><text x="388.845" y="439.991" fill="#161E26" font-size="20.313" textLength="62.743" font-family="'Segoe UI'">photos</text><text x="326.698" y="467.008" fill="#161E26" font-size="20.313" font-family="'Segoe UI'">à</text><text x="337.033" y="467.008" fill="#161E26" font-size="20.313" font-family="'Segoe UI'"> </text><text x="342.597" y="467.008" fill="#161E26" font-size="20.313" textLength="15.254" font-family="'Segoe UI'">la</text><text x="357.851" y="467.008" fill="#161E26" font-size="20.313" font-family="'Segoe UI'"> </text><text x="363.415" y="467.008" fill="#161E26" font-size="20.313" textLength="42.777" font-family="'Segoe UI'">fiche</text></g><!--entity U07--><g class="entity" data-qualified-name="M1 - R.f.rentiel.U07" id="ent0012" data-source-line="21"><ellipse cx="366.685" cy="306.807" rx="108.092" ry="52.211" fill="#FFF" style="stroke:#106D99;stroke-width:1.563;"/><text x="341.577" y="282.254" fill="#161E26" font-size="20.313" textLength="50.216" font-family="'Segoe UI'">EF-07</text><text x="278.508" y="309.271" fill="#161E26" font-size="20.313" textLength="99.896" font-family="'Segoe UI'">Rechercher</text><text x="378.404" y="309.271" fill="#161E26" font-size="20.313" font-family="'Segoe UI'"> </text><text x="383.968" y="309.271" fill="#161E26" font-size="20.313" textLength="17.506" font-family="'Segoe UI'">et</text><text x="401.474" y="309.271" fill="#161E26" font-size="20.313" font-family="'Segoe UI'"> </text><text x="407.038" y="309.271" fill="#161E26" font-size="20.313" textLength="47.826" font-family="'Segoe UI'">filtrer</text><text x="296.618" y="336.289" fill="#161E26" font-size="20.313" textLength="24.161" font-family="'Segoe UI'">les</text><text x="320.779" y="336.289" fill="#161E26" font-size="20.313" font-family="'Segoe UI'"> </text><text x="326.343" y="336.289" fill="#161E26" font-size="20.313" textLength="55.76" font-family="'Segoe UI'">points</text><text x="382.103" y="336.289" fill="#161E26" font-size="20.313" font-family="'Segoe UI'"> </text><text x="387.667" y="336.289" fill="#161E26" font-size="20.313" textLength="49.085" font-family="'Segoe UI'">d'eau</text></g><!--entity USAGER--><g class="entity" data-qualified-name="USAGER" id="ent0001" data-source-line="9"><ellipse cx="75.781" cy="251.471" rx="25" ry="25" fill="#D6EDF7" style="stroke:#106D99;stroke-width:0.781;"/><path d="M75.781,282.721 C82.031,282.721 86.719,282.721 92.969,276.471 C105.469,276.471 117.969,288.971 117.969,301.471 L117.969,307.721 C117.969,313.971 111.719,320.221 105.469,320.221 L46.094,320.221 C39.844,320.221 33.594,313.971 33.594,307.721 L33.594,301.471 C33.594,288.971 46.094,276.471 58.594,276.471 C64.844,282.721 69.531,282.721 75.781,282.721" style="stroke:#106D99;stroke-width:0.781;" fill="#D6EDF7"/><text x="37.175" y="342.921" fill="#161E26" font-size="20.313" textLength="77.213" font-family="'Segoe UI'">Habitant</text></g><!--entity DELEGUE--><g class="entity" data-qualified-name="DELEGUE" id="ent0002" data-source-line="10"><ellipse cx="75.781" cy="398.346" rx="25" ry="25" fill="#D6EDF7" style="stroke:#106D99;stroke-width:0.781;"/><path d="M75.781,429.596 C82.031,429.596 86.719,429.596 92.969,423.346 C105.469,423.346 117.969,435.846 117.969,448.346 L117.969,454.596 C117.969,460.846 111.719,467.096 105.469,467.096 L46.094,467.096 C39.844,467.096 33.594,460.846 33.594,454.596 L33.594,448.346 C33.594,435.846 46.094,423.346 58.594,423.346 C64.844,429.596 69.531,429.596 75.781,429.596" style="stroke:#106D99;stroke-width:0.781;" fill="#D6EDF7"/><text x="38.538" y="489.796" fill="#161E26" font-size="20.313" textLength="74.486" font-family="'Segoe UI'">Délégué</text></g><!--entity PARTENAIRE--><g class="entity" data-qualified-name="PARTENAIRE" id="ent0003" data-source-line="11"><ellipse cx="75.825" cy="104.596" rx="25" ry="25" fill="#D6EDF7" style="stroke:#106D99;stroke-width:0.781;"/><path d="M75.825,135.846 C82.075,135.846 86.762,135.846 93.012,129.596 C105.512,129.596 118.012,142.096 118.012,154.596 L118.012,160.846 C118.012,167.096 111.762,173.346 105.512,173.346 L46.137,173.346 C39.887,173.346 33.637,167.096 33.637,160.846 L33.637,154.596 C33.637,142.096 46.137,129.596 58.637,129.596 C64.887,135.846 69.575,135.846 75.825,135.846" style="stroke:#106D99;stroke-width:0.781;" fill="#D6EDF7"/><text x="30.469" y="196.046" fill="#161E26" font-size="20.313" textLength="90.712" font-family="'Segoe UI'">Partenaire</text></g><!--entity ADMIN--><g class="entity" data-qualified-name="ADMIN" id="ent0004" data-source-line="12"><ellipse cx="75.802" cy="545.221" rx="25" ry="25" fill="#D6EDF7" style="stroke:#106D99;stroke-width:0.781;"/><path d="M75.802,576.471 C82.052,576.471 86.74,576.471 92.99,570.221 C105.49,570.221 117.99,582.721 117.99,595.221 L117.99,601.471 C117.99,607.721 111.74,613.971 105.49,613.971 L46.115,613.971 C39.865,613.971 33.615,607.721 33.615,601.471 L33.615,595.221 C33.615,582.721 46.115,570.221 58.615,570.221 C64.865,576.471 69.552,576.471 75.802,576.471" style="stroke:#106D99;stroke-width:0.781;" fill="#D6EDF7"/><text x="9.375" y="636.671" fill="#161E26" font-size="20.313" textLength="132.854" font-family="'Segoe UI'">Administrateur</text></g><g class="entity" data-qualified-name="GMN25" id="ent0026" data-source-line="39"><path d="M667.188,88.19 L667.188,166.132 A6.25,6.25 0 0 0 673.438,172.382 L1013.589,172.382 A6.25,6.25 0 0 0 1019.839,166.132 L1019.839,97.565 L1004.214,81.94 L673.438,81.94 A6.25,6.25 0 0 0 667.188,88.19" style="stroke:#C86A2C;stroke-width:0.781;" fill="#F7ECE2"/><path d="M1004.214,81.94 L1004.214,94.44 A3.125,3.125 0 0 0 1007.339,97.565 L1019.839,97.565 L1004.214,81.94" style="stroke:#C86A2C;stroke-width:1.563;" fill="#F7ECE2"/><text x="676.563" y="109.985" fill="#161E26" font-size="18.75" textLength="100.992" font-family="'Segoe UI'">Suppression</text><text x="777.554" y="109.985" fill="#161E26" font-size="18.75" font-family="'Segoe UI'"> </text><text x="782.69" y="109.985" fill="#161E26" font-size="18.75" textLength="68.564" font-family="'Segoe UI'">toujours</text><text x="851.254" y="109.985" fill="#161E26" font-size="18.75" font-family="'Segoe UI'"> </text><text x="856.39" y="109.985" fill="#161E26" font-size="18.75" textLength="62.567" font-family="'Segoe UI'">logique</text><text x="918.958" y="109.985" fill="#161E26" font-size="18.75" font-family="'Segoe UI'"> </text><text x="924.094" y="109.985" fill="#161E26" font-size="18.75" textLength="63.107" font-family="'Segoe UI'">(RG-13)</text><text x="987.201" y="109.985" fill="#161E26" font-size="18.75" font-family="'Segoe UI'"> </text><text x="992.337" y="109.985" fill="#161E26" font-size="18.75" font-family="'Segoe UI'">:</text><text x="676.563" y="134.924" fill="#161E26" font-size="18.75" textLength="91.818" font-family="'Segoe UI'">l'historique</text><text x="768.381" y="134.924" fill="#161E26" font-size="18.75" font-family="'Segoe UI'"> </text><text x="773.517" y="134.924" fill="#161E26" font-size="18.75" textLength="20.847" font-family="'Segoe UI'">de</text><text x="794.363" y="134.924" fill="#161E26" font-size="18.75" font-family="'Segoe UI'"> </text><text x="799.5" y="134.924" fill="#161E26" font-size="18.75" textLength="76.337" font-family="'Segoe UI'">l'ouvrage</text><text x="875.836" y="134.924" fill="#161E26" font-size="18.75" font-family="'Segoe UI'"> </text><text x="880.972" y="134.924" fill="#161E26" font-size="18.75" textLength="24.115" font-family="'Segoe UI'">est</text><text x="676.563" y="159.863" fill="#161E26" font-size="18.75" textLength="17.496" font-family="'Segoe UI'">sa</text><text x="694.058" y="159.863" fill="#161E26" font-size="18.75" font-family="'Segoe UI'"> </text><text x="699.194" y="159.863" fill="#161E26" font-size="18.75" textLength="73.956" font-family="'Segoe UI'">mémoire</text><text x="773.151" y="159.863" fill="#161E26" font-size="18.75" font-family="'Segoe UI'"> </text><text x="778.287" y="159.863" fill="#161E26" font-size="18.75" textLength="86.105" font-family="'Segoe UI'">technique.</text></g><!--link ADMIN to U01--><g class="link" data-entity-1="ent0004" data-entity-2="ent0006" id="lnk13" data-source-line="24" data-link-type="dependency"><path d="M142.422,612.658 C161.516,620.58 182.75,627.924 203.125,631.94 C329.172,656.768 365.875,655.362 492.188,631.94 C589.141,613.971 686.856,573.539 756.247,540.804" style="stroke:#106D99;stroke-width:1.563;" fill="none" id="ADMIN-to-U01"/><polygon points="763.313,537.471,747.928,537.818,756.247,540.804,753.261,549.123,763.313,537.471" fill="#106D99" style="stroke:#106D99;stroke-width:1.563;stroke-linejoin:miter;stroke-miterlimit:10;"/></g><!--link ADMIN to U05--><g class="link" data-entity-1="ent0004" data-entity-2="ent0010" id="lnk14" data-source-line="25" data-link-type="dependency"><path d="M142.578,576.471 C171.906,574.721 199.717,573.061 233.764,571.03" style="stroke:#106D99;stroke-width:1.563;" fill="none" id="ADMIN-to-U05"/><polygon points="241.563,570.565,227.153,565.163,233.764,571.03,227.897,577.641,241.563,570.565" fill="#106D99" style="stroke:#106D99;stroke-width:1.563;stroke-linejoin:miter;stroke-miterlimit:10;"/></g><!--link ADMIN to U06--><g class="link" data-entity-1="ent0004" data-entity-2="ent0011" id="lnk15" data-source-line="26" data-link-type="dependency"><path d="M142.734,531.362 C161.656,518.393 182.719,505.065 203.125,494.44 C228.813,481.08 250.772,471.811 277.303,462.107" style="stroke:#106D99;stroke-width:1.563;" fill="none" id="ADMIN-to-U06"/><polygon points="284.641,459.424,269.287,458.384,277.303,462.107,273.58,470.124,284.641,459.424" fill="#106D99" style="stroke:#106D99;stroke-width:1.563;stroke-linejoin:miter;stroke-miterlimit:10;"/></g><!--link DELEGUE to U06--><g class="link" data-entity-1="ent0002" data-entity-2="ent0011" id="lnk16" data-source-line="27" data-link-type="dependency"><path d="M119.156,433.502 C158.547,433.502 211.188,433.502 262.266,433.502" style="stroke:#106D99;stroke-width:1.563;" fill="none" id="DELEGUE-to-U06"/><polygon points="270.078,433.502,256.016,427.252,262.266,433.502,256.016,439.752,270.078,433.502" fill="#106D99" style="stroke:#106D99;stroke-width:1.563;stroke-linejoin:miter;stroke-miterlimit:10;"/></g><!--link USAGER to U03--><g class="link" data-entity-1="ent0001" data-entity-2="ent0008" id="lnk17" data-source-line="28" data-link-type="dependency"><path d="M118.844,267.565 C142.906,257.58 174.094,246.393 203.125,241.315 C387.531,209.112 597.065,246.781 724.862,277.859" style="stroke:#106D99;stroke-width:1.563;" fill="none" id="USAGER-to-U03"/><polygon points="732.453,279.705,720.266,270.309,724.862,277.859,717.312,282.455,732.453,279.705" fill="#106D99" style="stroke:#106D99;stroke-width:1.563;stroke-linejoin:miter;stroke-miterlimit:10;"/></g><!--link USAGER to U07--><g class="link" data-entity-1="ent0001" data-entity-2="ent0012" id="lnk18" data-source-line="29" data-link-type="dependency"><path d="M119.156,289.58 C155.906,292.174 203.176,295.515 251.879,298.952" style="stroke:#106D99;stroke-width:1.563;" fill="none" id="USAGER-to-U07"/><polygon points="259.672,299.502,246.084,292.278,251.879,298.952,245.204,304.747,259.672,299.502" fill="#106D99" style="stroke:#106D99;stroke-width:1.563;stroke-linejoin:miter;stroke-miterlimit:10;"/></g><!--link PARTENAIRE to U07--><g class="link" data-entity-1="ent0003" data-entity-2="ent0012" id="lnk19" data-source-line="30" data-link-type="dependency"><path d="M121.641,165.502 C168.094,192.533 235.012,231.435 289.106,262.888" style="stroke:#106D99;stroke-width:1.563;" fill="none" id="PARTENAIRE-to-U07"/><polygon points="295.859,266.815,286.844,254.343,289.106,262.888,280.561,265.149,295.859,266.815" fill="#106D99" style="stroke:#106D99;stroke-width:1.563;stroke-linejoin:miter;stroke-miterlimit:10;"/></g><!--link PARTENAIRE to U03--><g class="link" data-entity-1="ent0003" data-entity-2="ent0008" id="lnk20" data-source-line="31" data-link-type="dependency"><path d="M121.547,144.408 C214.812,154.815 438.141,182.862 620.313,230.377 C662.688,241.424 701.092,254.414 739.951,268.992" style="stroke:#106D99;stroke-width:1.563;" fill="none" id="PARTENAIRE-to-U03"/><polygon points="747.266,271.737,736.294,260.945,739.951,268.992,731.904,272.649,747.266,271.737" fill="#106D99" style="stroke:#106D99;stroke-width:1.563;stroke-linejoin:miter;stroke-miterlimit:10;"/></g><!--link U01 to U02--><g class="link" data-entity-1="ent0006" data-entity-2="ent0007" id="lnk21" data-source-line="33" data-link-type="dependency"><path d="M984.109,497.565 C1048.5,497.565 1118.094,497.565 1187.266,497.565" style="stroke:#106D99;stroke-width:1.563;stroke-dasharray:10.938,10.938;" fill="none" id="U01-to-U02"/><polygon points="1195.078,497.565,1181.016,491.315,1187.266,497.565,1181.016,503.815,1195.078,497.565" fill="#106D99" style="stroke:#106D99;stroke-width:1.563;stroke-linejoin:miter;stroke-miterlimit:10;"/><text x="1068.75" y="492.798" fill="#3B4855" font-size="18.75" textLength="78.781" font-family="'Segoe UI'">«include»</text></g><!--link U01 to U04--><g class="link" data-entity-1="ent0006" data-entity-2="ent0009" id="lnk22" data-source-line="34" data-link-type="dependency"><path d="M948.828,465.44 C1046.266,435.19 1183.445,392.616 1277.601,363.381" style="stroke:#106D99;stroke-width:1.563;stroke-dasharray:10.938,10.938;" fill="none" id="U01-to-U04"/><polygon points="1285.063,361.065,1269.779,359.266,1277.601,363.381,1273.486,371.203,1285.063,361.065" fill="#106D99" style="stroke:#106D99;stroke-width:1.563;stroke-linejoin:miter;stroke-miterlimit:10;"/><text x="1068.75" y="400.61" fill="#3B4855" font-size="18.75" textLength="78.781" font-family="'Segoe UI'">«include»</text></g><!--link U05 to U01--><g class="link" data-entity-1="ent0010" data-entity-2="ent0006" id="lnk23" data-source-line="35" data-link-type="dependency"><path d="M487.016,546.721 C556.031,537.158 635.199,526.214 705.777,516.448" style="stroke:#106D99;stroke-width:1.563;stroke-dasharray:10.938,10.938;" fill="none" id="U05-to-U01"/><polygon points="713.516,515.377,698.729,511.114,705.777,516.448,700.442,523.496,713.516,515.377" fill="#106D99" style="stroke:#106D99;stroke-width:1.563;stroke-linejoin:miter;stroke-miterlimit:10;"/><text x="540.625" y="524.048" fill="#3B4855" font-size="18.75" textLength="78.781" font-family="'Segoe UI'">«include»</text></g><!--link U03 to U04--><g class="link" data-entity-1="ent0008" data-entity-2="ent0009" id="lnk24" data-source-line="36" data-link-type="dependency"><path d="M976.531,315.44 C1066.625,319.143 1177.038,323.666 1261.975,327.151" style="stroke:#106D99;stroke-width:1.563;stroke-dasharray:10.938,10.938;" fill="none" id="U03-to-U04"/><polygon points="1269.781,327.471,1255.987,320.65,1261.975,327.151,1255.474,333.139,1269.781,327.471" fill="#106D99" style="stroke:#106D99;stroke-width:1.563;stroke-linejoin:miter;stroke-miterlimit:10;"/><text x="1068.75" y="316.235" fill="#3B4855" font-size="18.75" textLength="78.781" font-family="'Segoe UI'">«include»</text></g><!--link U01 to GMN25--><g class="link" data-entity-1="ent0006" data-entity-2="ent0026" id="lnk27" data-source-line="39" data-link-type="association"><path d="M728.078,469.815 C673.047,450.174 612.266,417.612 579.688,364.752 C552.359,320.408 551.516,291.362 579.688,247.565 C601.078,214.299 634.188,190.127 669.813,172.596" style="stroke:#106D99;stroke-width:1.563;stroke-dasharray:10.938,10.938;" fill="none" id="U01-GMN25"/></g><?plantuml-src TLF1Jjj04BtlLqnp0Gu92I51GWWfWXIe2aAXz6IfMkn9icKzQtPdArLLh_s0Va6l_Wx_IR-aOyUX8OYJFVjctkoyUVlEK6fZXj3hxNy9_DrYhuYvLOeDMuHhbyNwCu0kpAfoNfKUYGrQo310uGnnW6m7TLJAufo17NYpM39ancFAnf4AZuOAxNKEvAGA2nYCDmwzfiVwSDnNIgViF7GkzODXJTm17U3-Rd8ndQsXywgqLRc8LTc0vzEFqulxwHgzrPwHjBHkqDl9xDFqPd8rUqwOPBaX4zXhnkYRfCdvzTMDKlLjDIrasCxhQJlmGm74WAaEaZ1zt-qF4ZhpLOaUzY5tcPcRvZUhoY2zp3Vq2KLQIRHIQ3LDVx3DT93GJ3FhT2aCrH-8X61TggtXganeLxeiH4Vu--itf2xFQxp-VueohNJTQuaFjec7SaL78LeMOgjXRgH5GaLyiEOfejnABkZYDwyNs78CjpaE4xeKlPmtGKWY9PGkHIRCiHchAbctQ-eVRjUE4hhA2-UvgPIPE25nsgPhOFVixlDwWD4smJYX3vASULpPRUdOXOH4e_KqRULuk_98DCLQq4PKPCcsxEkTs2tVjWn7wgTIZHMWsprjrhGPZLv4OzNwxZbUcRGDXo_38_NVXsyV3PMIfl8Cw-00Zk7af7sQfwSRoE4hPDGYWrV8y8qQHOuH7Xopoy7DMq_UnQBm649jDNRngui-oCuMZLLsPnVTmN0FZYNHxYnNZcWy95xTQJq465Zme26lojp9AmIM9L2Ts5D86TIDrJy0?></g></svg>