<svg xmlns="http://www.w3.org/2000/svg" xmlns:xlink="http://www.w3.org/1999/xlink" version="1.1" data-diagram-type="DESCRIPTION" style="width:879px;height:1781px;background:#FFFFFF;" width="879.688px" height="1781.25px" viewBox="0 0 879 1781" zoomAndPan="magnify" preserveAspectRatio="none" contentStyleType="text/css"><?plantuml 1.2026.7?><defs/><g font-family="sans-serif" lengthAdjust="spacing"><g class="title" data-source-line="3"><text x="151.508" y="45.975" fill="#0B4763" font-size="28.125" textLength="566.043" font-weight="700" font-family="'Segoe UI'">AquaSensus - Cas d'utilisation, vue globale</text></g><!--cluster AquaSensus--><g class="cluster" data-qualified-name="AquaSensus" id="ent0006" data-source-line="15"><rect x="226.563" y="81.158" width="348.438" height="1550" fill="#F7F9FB" style="stroke:#C3CDD8;stroke-width:1.563;" rx="6.25" ry="6.25"/><text x="343.33" y="106.203" fill="#0B4763" font-size="20.313" textLength="114.902" font-weight="700" font-family="'Segoe UI'">AquaSensus</text></g><!--entity UC1--><g class="entity" data-qualified-name="AquaSensus.UC1" id="ent0007" data-source-line="16"><ellipse cx="400.746" cy="333.969" rx="97.621" ry="55.936" fill="#FFF" style="stroke:#106D99;stroke-width:1.563;"/><text x="377.944" y="305.836" fill="#161E26" font-size="20.313" textLength="45.604" font-family="'Segoe UI'">UC-1</text><text x="333.019" y="332.853" fill="#161E26" font-size="20.313" textLength="85.574" font-family="'Segoe UI'">Consulter</text><text x="418.594" y="332.853" fill="#161E26" font-size="20.313" font-family="'Segoe UI'"> </text><text x="424.158" y="332.853" fill="#161E26" font-size="20.313" textLength="44.315" font-family="'Segoe UI'">l'état</text><text x="327.257" y="359.87" fill="#161E26" font-size="20.313" textLength="39.623" font-family="'Segoe UI'">d'un</text><text x="366.88" y="359.87" fill="#161E26" font-size="20.313" font-family="'Segoe UI'"> </text><text x="372.444" y="359.87" fill="#161E26" font-size="20.313" textLength="47.141" font-family="'Segoe UI'">point</text><text x="419.585" y="359.87" fill="#161E26" font-size="20.313" font-family="'Segoe UI'"> </text><text x="425.15" y="359.87" fill="#161E26" font-size="20.313" textLength="49.085" font-family="'Segoe UI'">d'eau</text></g><!--entity UC2--><g class="entity" data-qualified-name="AquaSensus.UC2" id="ent0008" data-source-line="17"><ellipse cx="400.663" cy="193.958" rx="113.944" ry="55.769" fill="#FFF" style="stroke:#106D99;stroke-width:1.563;"/><text x="377.861" y="165.55" fill="#161E26" font-size="20.313" textLength="45.604" font-family="'Segoe UI'">UC-2</text><text x="350.333" y="192.568" fill="#161E26" font-size="20.313" textLength="72.105" font-family="'Segoe UI'">Signaler</text><text x="422.438" y="192.568" fill="#161E26" font-size="20.313" font-family="'Segoe UI'"> </text><text x="428.002" y="192.568" fill="#161E26" font-size="20.313" textLength="22.99" font-family="'Segoe UI'">un</text><text x="313.983" y="219.585" fill="#161E26" font-size="20.313" textLength="173.36" font-family="'Segoe UI'">dysfonctionnement</text></g><!--entity UC3--><g class="entity" data-qualified-name="AquaSensus.UC3" id="ent0009" data-source-line="18"><ellipse cx="401.057" cy="878.204" rx="74.495" ry="56.421" fill="#FFF" style="stroke:#106D99;stroke-width:1.563;"/><text x="378.255" y="850.857" fill="#161E26" font-size="20.313" textLength="45.604" font-family="'Segoe UI'">UC-3</text><text x="348.808" y="877.874" fill="#161E26" font-size="20.313" textLength="75.944" font-family="'Segoe UI'">Qualifier</text><text x="424.752" y="877.874" fill="#161E26" font-size="20.313" font-family="'Segoe UI'"> </text><text x="430.316" y="877.874" fill="#161E26" font-size="20.313" textLength="22.99" font-family="'Segoe UI'">un</text><text x="346.373" y="904.892" fill="#161E26" font-size="20.313" textLength="109.368" font-family="'Segoe UI'">signalement</text></g><!--entity UC4--><g class="entity" data-qualified-name="AquaSensus.UC4" id="ent0010" data-source-line="19"><ellipse cx="400.503" cy="472.134" rx="105.972" ry="53.476" fill="#FFF" style="stroke:#106D99;stroke-width:1.563;"/><text x="377.701" y="446.147" fill="#161E26" font-size="20.313" textLength="45.604" font-family="'Segoe UI'">UC-4</text><text x="316.372" y="473.164" fill="#161E26" font-size="20.313" textLength="72.006" font-family="'Segoe UI'">Planifier</text><text x="388.378" y="473.164" fill="#161E26" font-size="20.313" font-family="'Segoe UI'"> </text><text x="393.942" y="473.164" fill="#161E26" font-size="20.313" textLength="17.506" font-family="'Segoe UI'">et</text><text x="411.448" y="473.164" fill="#161E26" font-size="20.313" font-family="'Segoe UI'"> </text><text x="417.012" y="473.164" fill="#161E26" font-size="20.313" textLength="67.622" font-family="'Segoe UI'">affecter</text><text x="326.9" y="500.181" fill="#161E26" font-size="20.313" textLength="33.613" font-family="'Segoe UI'">une</text><text x="360.513" y="500.181" fill="#161E26" font-size="20.313" font-family="'Segoe UI'"> </text><text x="366.077" y="500.181" fill="#161E26" font-size="20.313" textLength="108.029" font-family="'Segoe UI'">intervention</text></g><!--entity UC5--><g class="entity" data-qualified-name="AquaSensus.UC5" id="ent0011" data-source-line="20"><ellipse cx="400.418" cy="1275.025" rx="148.855" ry="55.586" fill="#FFF" style="stroke:#106D99;stroke-width:1.563;"/><text x="377.616" y="1246.316" fill="#161E26" font-size="20.313" textLength="45.604" font-family="'Segoe UI'">UC-5</text><text x="304.201" y="1273.334" fill="#161E26" font-size="20.313" textLength="69.249" font-family="'Segoe UI'">Réaliser</text><text x="373.45" y="1273.334" fill="#161E26" font-size="20.313" font-family="'Segoe UI'"> </text><text x="379.014" y="1273.334" fill="#161E26" font-size="20.313" textLength="117.62" font-family="'Segoe UI'">l'intervention</text><text x="285.629" y="1300.351" fill="#161E26" font-size="20.313" textLength="17.506" font-family="'Segoe UI'">et</text><text x="303.135" y="1300.351" fill="#161E26" font-size="20.313" font-family="'Segoe UI'"> </text><text x="308.699" y="1300.351" fill="#161E26" font-size="20.313" textLength="87.459" font-family="'Segoe UI'">consigner</text><text x="396.158" y="1300.351" fill="#161E26" font-size="20.313" font-family="'Segoe UI'"> </text><text x="401.722" y="1300.351" fill="#161E26" font-size="20.313" textLength="15.542" font-family="'Segoe UI'">le</text><text x="417.264" y="1300.351" fill="#161E26" font-size="20.313" font-family="'Segoe UI'"> </text><text x="422.828" y="1300.351" fill="#161E26" font-size="20.313" textLength="92.378" font-family="'Segoe UI'">diagnostic</text></g><!--entity UC6--><g class="entity" data-qualified-name="AquaSensus.UC6" id="ent0012" data-source-line="21"><ellipse cx="401.074" cy="609.124" rx="87.793" ry="56.09" fill="#FFF" style="stroke:#106D99;stroke-width:1.563;"/><text x="378.272" y="581.242" fill="#161E26" font-size="20.313" textLength="45.604" font-family="'Segoe UI'">UC-6</text><text x="345.775" y="608.259" fill="#161E26" font-size="20.313" textLength="89.492" font-family="'Segoe UI'">Confirmer</text><text x="435.267" y="608.259" fill="#161E26" font-size="20.313" font-family="'Segoe UI'"> </text><text x="440.831" y="608.259" fill="#161E26" font-size="20.313" textLength="15.542" font-family="'Segoe UI'">le</text><text x="335.554" y="635.277" fill="#161E26" font-size="20.313" textLength="131.039" font-family="'Segoe UI'">rétablissement</text></g><!--entity UC7--><g class="entity" data-qualified-name="AquaSensus.UC7" id="ent0013" data-source-line="22"><ellipse cx="400.405" cy="1014.313" rx="81.655" ry="51.124" fill="#FFF" style="stroke:#106D99;stroke-width:1.563;"/><text x="377.603" y="991.51" fill="#161E26" font-size="20.313" textLength="45.604" font-family="'Segoe UI'">UC-7</text><text x="333.234" y="1018.527" fill="#161E26" font-size="20.313" textLength="46.645" font-family="'Segoe UI'">Saisir</text><text x="379.879" y="1018.527" fill="#161E26" font-size="20.313" font-family="'Segoe UI'"> </text><text x="385.443" y="1018.527" fill="#161E26" font-size="20.313" textLength="22.99" font-family="'Segoe UI'">un</text><text x="408.434" y="1018.527" fill="#161E26" font-size="20.313" font-family="'Segoe UI'"> </text><text x="413.998" y="1018.527" fill="#161E26" font-size="20.313" textLength="53.578" font-family="'Segoe UI'">relevé</text><text x="353.249" y="1045.545" fill="#161E26" font-size="20.313" textLength="22.584" font-family="'Segoe UI'">de</text><text x="375.833" y="1045.545" fill="#161E26" font-size="20.313" font-family="'Segoe UI'"> </text><text x="381.397" y="1045.545" fill="#161E26" font-size="20.313" textLength="66.164" font-family="'Segoe UI'">volume</text></g><!--entity UC8--><g class="entity" data-qualified-name="AquaSensus.UC8" id="ent0014" data-source-line="23"><ellipse cx="400.702" cy="1142.261" rx="95.234" ry="49.384" fill="#FFF" style="stroke:#106D99;stroke-width:1.563;"/><text x="377.9" y="1120.554" fill="#161E26" font-size="20.313" textLength="45.604" font-family="'Segoe UI'">UC-8</text><text x="318.604" y="1147.571" fill="#161E26" font-size="20.313" textLength="69.844" font-family="'Segoe UI'">Émettre</text><text x="388.448" y="1147.571" fill="#161E26" font-size="20.313" font-family="'Segoe UI'"> </text><text x="394.012" y="1147.571" fill="#161E26" font-size="20.313" textLength="24.161" font-family="'Segoe UI'">les</text><text x="418.173" y="1147.571" fill="#161E26" font-size="20.313" font-family="'Segoe UI'"> </text><text x="423.737" y="1147.571" fill="#161E26" font-size="20.313" textLength="59.063" font-family="'Segoe UI'">alertes</text><text x="352.371" y="1174.588" fill="#161E26" font-size="20.313" textLength="96.663" font-family="'Segoe UI'">prédictives</text></g><!--entity UC9--><g class="entity" data-qualified-name="AquaSensus.UC9" id="ent0015" data-source-line="24"><ellipse cx="400.553" cy="743.788" rx="88.834" ry="49.348" fill="#FFF" style="stroke:#106D99;stroke-width:1.563;"/><text x="377.751" y="722.347" fill="#161E26" font-size="20.313" textLength="45.604" font-family="'Segoe UI'">UC-9</text><text x="324.197" y="749.364" fill="#161E26" font-size="20.313" textLength="57.526" font-family="'Segoe UI'">Traiter</text><text x="381.723" y="749.364" fill="#161E26" font-size="20.313" font-family="'Segoe UI'"> </text><text x="387.287" y="749.364" fill="#161E26" font-size="20.313" textLength="33.613" font-family="'Segoe UI'">une</text><text x="420.9" y="749.364" fill="#161E26" font-size="20.313" font-family="'Segoe UI'"> </text><text x="426.464" y="749.364" fill="#161E26" font-size="20.313" textLength="50.444" font-family="'Segoe UI'">alerte</text><text x="356.531" y="776.381" fill="#161E26" font-size="20.313" textLength="88.044" font-family="'Segoe UI'">prédictive</text></g><!--entity UC10--><g class="entity" data-qualified-name="AquaSensus.UC10" id="ent0016" data-source-line="25"><ellipse cx="400.797" cy="1412.373" rx="76.578" ry="53.871" fill="#FFF" style="stroke:#106D99;stroke-width:1.563;"/><text x="372.52" y="1388.702" fill="#161E26" font-size="20.313" textLength="56.554" font-family="'Segoe UI'">UC-10</text><text x="341.561" y="1415.72" fill="#161E26" font-size="20.313" textLength="54.62" font-family="'Segoe UI'">Suivre</text><text x="396.18" y="1415.72" fill="#161E26" font-size="20.313" font-family="'Segoe UI'"> </text><text x="401.744" y="1415.72" fill="#161E26" font-size="20.313" textLength="24.161" font-family="'Segoe UI'">les</text><text x="425.905" y="1415.72" fill="#161E26" font-size="20.313" font-family="'Segoe UI'"> </text><text x="431.469" y="1415.72" fill="#161E26" font-size="20.313" textLength="28.564" font-family="'Segoe UI'">KPI</text><text x="351.553" y="1442.737" fill="#161E26" font-size="20.313" textLength="17.506" font-family="'Segoe UI'">et</text><text x="369.059" y="1442.737" fill="#161E26" font-size="20.313" font-family="'Segoe UI'"> </text><text x="374.623" y="1442.737" fill="#161E26" font-size="20.313" textLength="75.418" font-family="'Segoe UI'">exporter</text></g><!--entity UC11--><g class="entity" data-qualified-name="AquaSensus.UC11" id="ent0017" data-source-line="26"><ellipse cx="400.581" cy="1550.212" rx="139.644" ry="55.772" fill="#FFF" style="stroke:#106D99;stroke-width:1.563;"/><text x="372.304" y="1521.81" fill="#161E26" font-size="20.313" textLength="56.554" font-family="'Segoe UI'">UC-11</text><text x="314.799" y="1548.827" fill="#161E26" font-size="20.313" textLength="49.303" font-family="'Segoe UI'">Gérer</text><text x="364.102" y="1548.827" fill="#161E26" font-size="20.313" font-family="'Segoe UI'"> </text><text x="369.666" y="1548.827" fill="#161E26" font-size="20.313" textLength="15.542" font-family="'Segoe UI'">le</text><text x="385.208" y="1548.827" fill="#161E26" font-size="20.313" font-family="'Segoe UI'"> </text><text x="390.772" y="1548.827" fill="#161E26" font-size="20.313" textLength="95.592" font-family="'Segoe UI'">référentiel,</text><text x="293.519" y="1575.844" fill="#161E26" font-size="20.313" textLength="24.161" font-family="'Segoe UI'">les</text><text x="317.68" y="1575.844" fill="#161E26" font-size="20.313" font-family="'Segoe UI'"> </text><text x="323.244" y="1575.844" fill="#161E26" font-size="20.313" textLength="76.846" font-family="'Segoe UI'">comptes</text><text x="400.09" y="1575.844" fill="#161E26" font-size="20.313" font-family="'Segoe UI'"> </text><text x="405.654" y="1575.844" fill="#161E26" font-size="20.313" textLength="17.506" font-family="'Segoe UI'">et</text><text x="423.16" y="1575.844" fill="#161E26" font-size="20.313" font-family="'Segoe UI'"> </text><text x="428.724" y="1575.844" fill="#161E26" font-size="20.313" textLength="24.161" font-family="'Segoe UI'">les</text><text x="452.885" y="1575.844" fill="#161E26" font-size="20.313" font-family="'Segoe UI'"> </text><text x="458.449" y="1575.844" fill="#161E26" font-size="20.313" textLength="49.194" font-family="'Segoe UI'">seuils</text></g><!--entity USAGER--><g class="entity" data-qualified-name="USAGER" id="ent0001" data-source-line="9"><ellipse cx="75.781" cy="214.752" rx="25" ry="25" fill="#D6EDF7" style="stroke:#106D99;stroke-width:0.781;"/><path d="M75.781,246.002 C82.031,246.002 86.719,246.002 92.969,239.752 C105.469,239.752 117.969,252.252 117.969,264.752 L117.969,271.002 C117.969,277.252 111.719,283.502 105.469,283.502 L46.094,283.502 C39.844,283.502 33.594,277.252 33.594,271.002 L33.594,264.752 C33.594,252.252 46.094,239.752 58.594,239.752 C64.844,246.002 69.531,246.002 75.781,246.002" style="stroke:#106D99;stroke-width:0.781;" fill="#D6EDF7"/><text x="37.175" y="306.203" fill="#161E26" font-size="20.313" textLength="77.213" font-family="'Segoe UI'">Habitant</text><text x="37.175" y="333.22" fill="#161E26" font-size="20.313" textLength="72.353" font-family="'Segoe UI'">(usager)</text></g><!--entity DELEGUE--><g class="entity" data-qualified-name="DELEGUE" id="ent0002" data-source-line="10"><ellipse cx="75.781" cy="694.44" rx="25" ry="25" fill="#D6EDF7" style="stroke:#106D99;stroke-width:0.781;"/><path d="M75.781,725.69 C82.031,725.69 86.719,725.69 92.969,719.44 C105.469,719.44 117.969,731.94 117.969,744.44 L117.969,750.69 C117.969,756.94 111.719,763.19 105.469,763.19 L46.094,763.19 C39.844,763.19 33.594,756.94 33.594,750.69 L33.594,744.44 C33.594,731.94 46.094,719.44 58.594,719.44 C64.844,725.69 69.531,725.69 75.781,725.69" style="stroke:#106D99;stroke-width:0.781;" fill="#D6EDF7"/><text x="38.538" y="785.89" fill="#161E26" font-size="20.313" textLength="74.486" font-family="'Segoe UI'">Délégué</text><text x="38.538" y="812.907" fill="#161E26" font-size="20.313" textLength="73.464" font-family="'Segoe UI'">(comité)</text></g><!--entity TECH--><g class="entity" data-qualified-name="TECH" id="ent0003" data-source-line="11"><ellipse cx="75.613" cy="1089.752" rx="25" ry="25" fill="#D6EDF7" style="stroke:#106D99;stroke-width:0.781;"/><path d="M75.613,1121.002 C81.863,1121.002 86.551,1121.002 92.801,1114.752 C105.301,1114.752 117.801,1127.252 117.801,1139.752 L117.801,1146.002 C117.801,1152.252 111.551,1158.502 105.301,1158.502 L45.926,1158.502 C39.676,1158.502 33.426,1152.252 33.426,1146.002 L33.426,1139.752 C33.426,1127.252 45.926,1114.752 58.426,1114.752 C64.676,1121.002 69.363,1121.002 75.613,1121.002" style="stroke:#106D99;stroke-width:0.781;" fill="#D6EDF7"/><text x="28.125" y="1181.203" fill="#161E26" font-size="20.313" textLength="94.977" font-family="'Segoe UI'">Technicien</text></g><!--entity PARTENAIRE--><g class="entity" data-qualified-name="PARTENAIRE" id="ent0004" data-source-line="12"><ellipse cx="75.706" cy="1350.69" rx="25" ry="25" fill="#D6EDF7" style="stroke:#106D99;stroke-width:0.781;"/><path d="M75.706,1381.94 C81.956,1381.94 86.643,1381.94 92.893,1375.69 C105.393,1375.69 117.893,1388.19 117.893,1400.69 L117.893,1406.94 C117.893,1413.19 111.643,1419.44 105.393,1419.44 L46.018,1419.44 C39.768,1419.44 33.518,1413.19 33.518,1406.94 L33.518,1400.69 C33.518,1388.19 46.018,1375.69 58.518,1375.69 C64.768,1381.94 69.456,1381.94 75.706,1381.94" style="stroke:#106D99;stroke-width:0.781;" fill="#D6EDF7"/><text x="10.156" y="1442.14" fill="#161E26" font-size="20.313" textLength="90.712" font-family="'Segoe UI'">Partenaire</text><text x="10.156" y="1469.157" fill="#161E26" font-size="20.313" textLength="50.573" font-family="'Segoe UI'">(ONG</text><text x="60.729" y="1469.157" fill="#161E26" font-size="20.313" font-family="'Segoe UI'"> </text><text x="66.293" y="1469.157" fill="#161E26" font-size="20.313" font-family="'Segoe UI'">/</text><text x="74.208" y="1469.157" fill="#161E26" font-size="20.313" font-family="'Segoe UI'"> </text><text x="79.772" y="1469.157" fill="#161E26" font-size="20.313" textLength="61.483" font-family="'Segoe UI'">mairie)</text></g><!--entity ADMIN--><g class="entity" data-qualified-name="ADMIN" id="ent0005" data-source-line="13"><ellipse cx="75.802" cy="1528.815" rx="25" ry="25" fill="#D6EDF7" style="stroke:#106D99;stroke-width:0.781;"/><path d="M75.802,1560.065 C82.052,1560.065 86.74,1560.065 92.99,1553.815 C105.49,1553.815 117.99,1566.315 117.99,1578.815 L117.99,1585.065 C117.99,1591.315 111.74,1597.565 105.49,1597.565 L46.115,1597.565 C39.865,1597.565 33.615,1591.315 33.615,1585.065 L33.615,1578.815 C33.615,1566.315 46.115,1553.815 58.615,1553.815 C64.865,1560.065 69.552,1560.065 75.802,1560.065" style="stroke:#106D99;stroke-width:0.781;" fill="#D6EDF7"/><text x="9.375" y="1620.265" fill="#161E26" font-size="20.313" textLength="132.854" font-family="'Segoe UI'">Administrateur</text></g><!--entity MOTEUR--><g class="entity" data-qualified-name="MOTEUR" id="ent0018" data-source-line="29"><ellipse cx="757.967" cy="1106.613" rx="25" ry="25" fill="#D6EDF7" style="stroke:#106D99;stroke-width:0.781;"/><path d="M757.967,1137.863 C764.217,1137.863 768.904,1137.863 775.154,1131.613 C787.654,1131.613 800.154,1144.113 800.154,1156.613 L800.154,1162.863 C800.154,1169.113 793.904,1175.363 787.654,1175.363 L728.279,1175.363 C722.029,1175.363 715.779,1169.113 715.779,1162.863 L715.779,1156.613 C715.779,1144.113 728.279,1131.613 740.779,1131.613 C747.029,1137.863 751.717,1137.863 757.967,1137.863" style="stroke:#106D99;stroke-width:0.781;" fill="#D6EDF7"/><text x="659.375" y="1198.064" fill="#161E26" font-size="20.313" textLength="66.204" font-family="'Segoe UI'">Moteur</text><text x="725.579" y="1198.064" fill="#161E26" font-size="20.313" font-family="'Segoe UI'"> </text><text x="731.143" y="1198.064" fill="#161E26" font-size="20.313" textLength="74.049" font-family="'Segoe UI'">prédictif</text><text x="659.375" y="1225.081" fill="#161E26" font-size="20.313" textLength="99.331" font-family="'Segoe UI'">(traitement</text><text x="758.706" y="1225.081" fill="#161E26" font-size="20.313" font-family="'Segoe UI'"> </text><text x="764.27" y="1225.081" fill="#161E26" font-size="20.313" textLength="92.289" font-family="'Segoe UI'">quotidien)</text><text x="712.7" y="1075.734" fill="#161E26" font-size="20.313" textLength="90.533" font-style="italic" font-family="'Segoe UI'">«système»</text></g><!--entity CANAL--><g class="entity" data-qualified-name="CANAL" id="ent0019" data-source-line="30"><ellipse cx="757.716" cy="158.176" rx="25" ry="25" fill="#D6EDF7" style="stroke:#106D99;stroke-width:0.781;"/><path d="M757.716,189.426 C763.966,189.426 768.653,189.426 774.903,183.176 C787.403,183.176 799.903,195.676 799.903,208.176 L799.903,214.426 C799.903,220.676 793.653,226.926 787.403,226.926 L728.028,226.926 C721.778,226.926 715.528,220.676 715.528,214.426 L715.528,208.176 C715.528,195.676 728.028,183.176 740.528,183.176 C746.778,189.426 751.466,189.426 757.716,189.426" style="stroke:#106D99;stroke-width:0.781;" fill="#D6EDF7"/><text x="675.781" y="249.626" fill="#161E26" font-size="20.313" textLength="49.66" font-family="'Segoe UI'">Canal</text><text x="725.442" y="249.626" fill="#161E26" font-size="20.313" font-family="'Segoe UI'"> </text><text x="731.006" y="249.626" fill="#161E26" font-size="20.313" textLength="39.822" font-family="'Segoe UI'">SMS</text><text x="770.827" y="249.626" fill="#161E26" font-size="20.313" font-family="'Segoe UI'"> </text><text x="776.392" y="249.626" fill="#161E26" font-size="20.313" font-family="'Segoe UI'">/</text><text x="784.306" y="249.626" fill="#161E26" font-size="20.313" font-family="'Segoe UI'"> </text><text x="789.87" y="249.626" fill="#161E26" font-size="20.313" textLength="49.78" font-family="'Segoe UI'">USSD</text><text x="675.781" y="276.643" fill="#161E26" font-size="20.313" textLength="58.071" font-family="'Segoe UI'">simulé</text><text x="712.449" y="127.296" fill="#161E26" font-size="20.313" textLength="90.533" font-style="italic" font-family="'Segoe UI'">«système»</text></g><!--link USAGER to UC1--><g class="link" data-entity-1="ent0001" data-entity-2="ent0007" id="lnk20" data-source-line="32" data-link-type="dependency"><path d="M118.766,273.018 C166.641,283.471 239.227,299.336 301.633,312.961" style="stroke:#106D99;stroke-width:1.563;" fill="none" id="USAGER-to-UC1"/><polygon points="309.266,314.627,296.86,305.521,301.633,312.961,294.194,317.734,309.266,314.627" fill="#106D99" style="stroke:#106D99;stroke-width:1.563;stroke-linejoin:miter;stroke-miterlimit:10;"/></g><!--link USAGER to UC2--><g class="link" data-entity-1="ent0001" data-entity-2="ent0008" id="lnk21" data-source-line="33" data-link-type="dependency"><path d="M118.766,254.924 C163.422,245.174 228.571,230.935 288.789,217.779" style="stroke:#106D99;stroke-width:1.563;" fill="none" id="USAGER-to-UC2"/><polygon points="296.422,216.112,281.349,213.007,288.789,217.779,284.017,225.219,296.422,216.112" fill="#106D99" style="stroke:#106D99;stroke-width:1.563;stroke-linejoin:miter;stroke-miterlimit:10;"/></g><!--link DELEGUE to UC3--><g class="link" data-entity-1="ent0002" data-entity-2="ent0009" id="lnk22" data-source-line="35" data-link-type="dependency"><path d="M118.953,763.44 C145.891,776.065 181.844,792.549 214.063,806.158 C253.453,822.783 290.82,837.404 326.414,850.904" style="stroke:#106D99;stroke-width:1.563;" fill="none" id="DELEGUE-to-UC3"/><polygon points="333.719,853.674,322.787,842.843,326.414,850.904,318.354,854.531,333.719,853.674" fill="#106D99" style="stroke:#106D99;stroke-width:1.563;stroke-linejoin:miter;stroke-miterlimit:10;"/></g><!--link DELEGUE to UC4--><g class="link" data-entity-1="ent0002" data-entity-2="ent0010" id="lnk23" data-source-line="36" data-link-type="dependency"><path d="M112.328,668.627 C135.766,625.502 170.344,573.252 214.063,538.971 C240.172,518.502 265.648,506.355 296.461,496.121" style="stroke:#106D99;stroke-width:1.563;" fill="none" id="DELEGUE-to-UC4"/><polygon points="303.875,493.658,288.559,492.16,296.461,496.121,292.5,504.023,303.875,493.658" fill="#106D99" style="stroke:#106D99;stroke-width:1.563;stroke-linejoin:miter;stroke-miterlimit:10;"/></g><!--link DELEGUE to UC6--><g class="link" data-entity-1="ent0002" data-entity-2="ent0012" id="lnk24" data-source-line="37" data-link-type="dependency"><path d="M118.859,723.205 C145.781,710.205 181.719,693.299 214.063,679.596 C249.844,664.44 282.786,651.691 316.614,639.128" style="stroke:#106D99;stroke-width:1.563;" fill="none" id="DELEGUE-to-UC6"/><polygon points="323.938,636.408,308.579,635.445,316.614,639.128,312.93,647.163,323.938,636.408" fill="#106D99" style="stroke:#106D99;stroke-width:1.563;stroke-linejoin:miter;stroke-miterlimit:10;"/></g><!--link DELEGUE to UC7--><g class="link" data-entity-1="ent0002" data-entity-2="ent0013" id="lnk25" data-source-line="38" data-link-type="dependency"><path d="M112.234,818.815 C135.641,861.987 170.219,914.237 214.063,948.346 C245.547,972.846 279.413,986.558 315.069,996.511" style="stroke:#106D99;stroke-width:1.563;" fill="none" id="DELEGUE-to-UC7"/><polygon points="322.594,998.612,310.729,988.811,315.069,996.511,307.369,1000.851,322.594,998.612" fill="#106D99" style="stroke:#106D99;stroke-width:1.563;stroke-linejoin:miter;stroke-miterlimit:10;"/></g><!--link DELEGUE to UC9--><g class="link" data-entity-1="ent0002" data-entity-2="ent0015" id="lnk26" data-source-line="39" data-link-type="dependency"><path d="M118.766,743.658 C167.156,743.658 240.766,743.658 303.438,743.658" style="stroke:#106D99;stroke-width:1.563;" fill="none" id="DELEGUE-to-UC9"/><polygon points="311.25,743.658,297.188,737.408,303.438,743.658,297.188,749.908,311.25,743.658" fill="#106D99" style="stroke:#106D99;stroke-width:1.563;stroke-linejoin:miter;stroke-miterlimit:10;"/></g><!--link TECH to UC5--><g class="link" data-entity-1="ent0003" data-entity-2="ent0011" id="lnk27" data-source-line="41" data-link-type="dependency"><path d="M123.766,1154.533 C149.75,1170.455 183.063,1189.799 214.063,1204.596 C238.422,1216.221 257.959,1224.525 283.459,1234.337" style="stroke:#106D99;stroke-width:1.563;" fill="none" id="TECH-to-UC5"/><polygon points="290.75,1237.143,279.87,1226.259,283.459,1234.337,275.381,1237.926,290.75,1237.143" fill="#106D99" style="stroke:#106D99;stroke-width:1.563;stroke-linejoin:miter;stroke-miterlimit:10;"/></g><!--link TECH to UC7--><g class="link" data-entity-1="ent0003" data-entity-2="ent0013" id="lnk28" data-source-line="42" data-link-type="dependency"><path d="M123.453,1109.018 C177,1090.565 258.536,1062.454 320.879,1040.969" style="stroke:#106D99;stroke-width:1.563;" fill="none" id="TECH-to-UC7"/><polygon points="328.266,1038.424,312.934,1037.097,320.879,1040.969,317.007,1048.915,328.266,1038.424" fill="#106D99" style="stroke:#106D99;stroke-width:1.563;stroke-linejoin:miter;stroke-miterlimit:10;"/></g><!--link PARTENAIRE to UC10--><g class="link" data-entity-1="ent0004" data-entity-2="ent0016" id="lnk29" data-source-line="44" data-link-type="dependency"><path d="M141.703,1402.408 C194.359,1404.455 261.084,1407.042 316.428,1409.198" style="stroke:#106D99;stroke-width:1.563;" fill="none" id="PARTENAIRE-to-UC10"/><polygon points="324.234,1409.502,310.426,1402.709,316.428,1409.198,309.939,1415.2,324.234,1409.502" fill="#106D99" style="stroke:#106D99;stroke-width:1.563;stroke-linejoin:miter;stroke-miterlimit:10;"/></g><!--link ADMIN to UC11--><g class="link" data-entity-1="ent0005" data-entity-2="ent0017" id="lnk30" data-source-line="45" data-link-type="dependency"><path d="M142.484,1561.127 C176.828,1559.627 212.539,1558.063 253.929,1556.25" style="stroke:#106D99;stroke-width:1.563;" fill="none" id="ADMIN-to-UC11"/><polygon points="261.734,1555.908,247.412,1550.28,253.929,1556.25,247.959,1562.768,261.734,1555.908" fill="#106D99" style="stroke:#106D99;stroke-width:1.563;stroke-linejoin:miter;stroke-miterlimit:10;"/></g><!--reverse link UC2 to CANAL--><g class="link" data-entity-1="ent0008" data-entity-2="ent0019" id="lnk31" data-source-line="47" data-link-type="dependency"><path d="M523.109,193.658 C575.297,193.658 628.266,193.658 675.719,193.658" style="stroke:#106D99;stroke-width:1.563;" fill="none" id="UC2-backto-CANAL"/><polygon points="515.297,193.658,529.359,199.908,523.109,193.658,529.359,187.408,515.297,193.658" fill="#106D99" style="stroke:#106D99;stroke-width:1.563;stroke-linejoin:miter;stroke-miterlimit:10;"/></g><!--reverse link UC8 to MOTEUR--><g class="link" data-entity-1="ent0014" data-entity-2="ent0018" id="lnk32" data-source-line="48" data-link-type="dependency"><path d="M504.063,1142.096 C554.234,1142.096 608.109,1142.096 658.813,1142.096" style="stroke:#106D99;stroke-width:1.563;" fill="none" id="UC8-backto-MOTEUR"/><polygon points="496.25,1142.096,510.313,1148.346,504.063,1142.096,510.313,1135.846,496.25,1142.096" fill="#106D99" style="stroke:#106D99;stroke-width:1.563;stroke-linejoin:miter;stroke-miterlimit:10;"/></g><g class="legend" data-source-line="50"><rect x="205.388" y="1662.408" width="458.282" height="90.442" fill="#F7F9FB" style="stroke:#DDE4EB;stroke-width:1.563;" rx="6.25" ry="6.25"/><text x="213.201" y="1690.454" fill="#161E26" font-size="18.75" textLength="431.113" font-family="'Segoe UI'">Vue macro : un cas d'utilisation par intention métier.</text><text x="213.201" y="1715.393" fill="#161E26" font-size="18.75" textLength="442.657" font-family="'Segoe UI'">Le détail (inclusions, extensions, scénarios) est décliné</text><text x="213.201" y="1740.332" fill="#161E26" font-size="18.75" textLength="420.667" font-family="'Segoe UI'">dans 01-cas-utilisation, un diagramme par module.</text></g><?plantuml-src NLHPRjj84FtlKrJyumIm7CcRxC0m8CY2OyJRQ9al0eCsML8QQLOhlGWnWXmWDmdFmOjDTPDoPFwfsFLgUNgltYdATIWG3Wy__kVyYyR3TIYr45vvZJ3w7kGCoGK7FHXB1yL-y4eh9xqoT02RWB3Ivbbg54BZqeCtODNgguT2MSnZbd3V5AsbbIMGAT3X6WRdEn-jf6_nux0lXCoziR3tMJuhBybdz3uukKBxOG-u-M8skfbCjqdNTQNhQXNgYjDoKofVLqtUzUHkShEOR1Fdc7ybbIkaz3gVZ3zldvwazKYIH-KQZmyty15AZXGsXPv6q_daONGxVQqrAaf5odahFGQRaaRNzxSFGiHj9QsOjBs_hEt1Jm4G7ERIySDYt1jaD3Ryf3rQqFjrvIMloRGIh8qYvcqVPMZM7GywuAECPcf5pBQ5G0nxSKj3YMN24ictkACExZYZVuBKQgbQe6kgx42EEv2JZ9wqf0Q27kHooGkYpIWG0W-ATiDexjmMEEaKECreMbVSrAL5Tn4PSS7Sf2dY8x9Ov8gCyoflgvrsgfqbsfRAbWcGaOtCFNDrjxl5MGSsPCAaSYfk3HOrRg9QMEuReqE9BMhOGPrdLFykqNkBtCj1vDkZosZDNGl5V6_GjTZp3lOYexcLoYUYiOM-GRR0Ywum-ZnhK9ksvvUdsqGJ_bWRhc2tYkXtOIoecxgo3O_SPHa3fXdrGKQn4bjZpTF7Fp663eFIs-a70_7hrNNt9ceQNaTTiYTysYKo3D-3yQfW5pNUk7-SJnPJkBnqByxNVqgykjeM6aiM5ypkPsodnMns7VLM1ZPh0ev73wExjpZHE1jwlQka-ZVXaH2jeTiFnvtuf1EVTU9X9xuG8jw0DZhT3OP2_FNyTfo-I1RVXWCUTtm4bxrUimf7vobg68btS8LKmBFntfJyT_tBHxAKkJNmASemxvvHu3kO79NC0IKhcqrtoCWxTaRKkTBmFXrgnmdkW4N1oUrlbzSLIQkC-m3eV0JaMb5TCRwGvA0_w77BtfkxpMD4o_7vBJ6rBqqH-FQBE7Wpl_WV?></g></svg>